<?xml version="1.0" encoding="utf-8"?>
<!-- Generator: Adobe Illustrator 16.0.4, SVG Export Plug-In . SVG Version: 6.00 Build 0)  -->
<!DOCTYPE svg PUBLIC "-//W3C//DTD SVG 1.1//EN" "http://www.w3.org/Graphics/SVG/1.1/DTD/svg11.dtd">
<svg version="1.1" id="Layer_1" xmlns="http://www.w3.org/2000/svg" xmlns:xlink="http://www.w3.org/1999/xlink" x="0px" y="0px"
	 width="497.613px" height="177.795px" viewBox="0 0 497.613 177.795" enable-background="new 0 0 497.613 177.795"
	 xml:space="preserve">
<g enable-background="new    ">
	<path fill="#FFFFFF" d="M125.542,91.805c-0.253,1.267-7.982,31.04-24.958,31.04c-4.054,0-7.475-1.647-9.629-4.561
		c-2.027-2.661-2.914-6.335-3.167-10.136c-6.715,8.868-15.963,14.696-24.958,14.696c-5.701,0-10.769-2.407-14.19-6.842
		c-4.814-6.334-5.955-15.583-3.294-25.592c4.688-17.357,19.004-30.913,32.814-30.913c5.701,0,10.769,2.407,14.189,6.841
		c1.014,1.395,1.9,2.788,2.534,4.435l0.634-2.153c0.38-1.647,2.154-2.661,3.801-2.281c1.647,0.507,2.661,2.154,2.154,3.801
		L96.53,88.764c-2.281,7.349-4.435,20.778-0.634,25.846c0.634,0.887,1.9,2.027,4.688,2.027c10.135,0,17.104-19.004,19.004-26.353
		c0.38-1.646,2.154-2.66,3.801-2.28C125.036,88.511,126.049,90.159,125.542,91.805z M89.688,90.539l0.253-1.141
		c1.774-7.729,0.887-14.823-2.534-19.258c-2.154-2.913-5.448-4.434-9.249-4.434c-10.769,0-23.059,12.036-26.859,26.226
		c-2.154,8.108-1.267,15.583,2.281,20.271c2.28,2.914,5.448,4.435,9.249,4.435C73.598,116.637,85.887,104.601,89.688,90.539z"/>
	<path fill="#FFFFFF" d="M164.566,91.552c-0.887,3.801-9.502,31.293-31.673,31.293c-20.271,0-15.71-23.691-12.542-34.841
		l8.108-28.506h-9.122c-1.773,0-3.041-1.268-3.041-3.041c0-1.646,1.267-2.914,3.041-2.914h10.896l6.715-23.438
		c0.507-1.646,2.027-2.66,3.674-2.153c1.521,0.38,2.661,2.027,2.154,3.674l-6.335,21.918h7.095c3.167,0,4.308,1.014,4.308,3.041
		c0,1.773-1.141,2.914-3.547,2.914h-9.502l-8.615,30.026c-2.154,7.475-6.334,27.239,6.715,27.239
		c19.384,0,25.212-24.705,25.592-26.226c0.507-1.9,2.154-2.534,3.801-2.154S164.946,89.905,164.566,91.552z"/>
	<path fill="#FFFFFF" d="M203.716,91.805c-0.253,1.267-7.855,31.04-31.42,31.04c-4.561,0-8.235-1.773-10.769-4.941
		c-5.701-7.348-4.054-20.65-2.787-27.112c0-0.253,0-0.38,0.126-0.633c0.253-1.521,0.507-2.534,0.634-2.914l11.909-45.104
		c2.28-9.248,10.642-39.655,22.171-39.655c3.674,0,5.448,1.774,6.334,3.294c4.814,7.855-4.814,27.366-22.298,61.066
		c-4.435,8.362-8.869,16.978-12.923,25.086c-1.14,6.461-2.154,17.23,1.647,22.171c1.394,1.774,3.294,2.534,5.955,2.534
		c18.75,0,25.339-25.973,25.465-26.353c0.38-1.646,2.027-2.66,3.674-2.153C203.083,88.511,204.097,90.159,203.716,91.805z
		 M172.043,63.933l-0.126,0.38L172.043,63.933z M177.364,43.662l-5.321,20.271c10.896-20.905,25.846-49.664,22.678-54.985
		c-0.127,0-0.253-0.254-1.14-0.254C189.02,8.694,181.418,27.065,177.364,43.662z"/>
	<path fill="#FFFFFF" d="M277.961,91.805c-0.254,1.267-7.982,31.04-24.959,31.04c-4.054,0-7.475-1.647-9.629-4.561
		c-2.027-2.661-2.914-6.335-3.167-10.136c-6.715,8.868-15.963,14.696-24.958,14.696c-5.701,0-10.769-2.407-14.19-6.842
		c-4.814-6.334-5.955-15.583-3.294-25.592c4.688-17.357,19.004-30.913,32.814-30.913c5.701,0,10.769,2.407,14.189,6.841
		c1.014,1.395,1.9,2.788,2.534,4.435l0.634-2.153c0.38-1.647,2.154-2.661,3.801-2.281c1.647,0.507,2.661,2.154,2.154,3.801
		l-4.941,18.624c-2.281,7.349-4.435,20.778-0.634,25.846c0.634,0.887,1.9,2.027,4.688,2.027c10.135,0,17.104-19.004,19.004-26.353
		c0.38-1.646,2.154-2.66,3.801-2.28C277.453,88.511,278.467,90.159,277.961,91.805z M242.106,90.539l0.253-1.141
		c1.774-7.729,0.887-14.823-2.534-19.258c-2.154-2.913-5.448-4.434-9.249-4.434c-10.769,0-23.059,12.036-26.859,26.226
		c-2.154,8.108-1.267,15.583,2.281,20.271c2.28,2.914,5.448,4.435,9.249,4.435C226.016,116.637,238.305,104.601,242.106,90.539z"/>
	<path fill="#FFFFFF" d="M341.311,91.805c-0.252,1.267-7.98,31.04-24.958,31.04c-4.562,0-8.235-1.773-10.642-5.067
		c-7.096-9.629-0.888-30.026-0.127-32.308c2.787-10.516,4.814-16.47,3.041-19.004c-0.127-0.253-0.508-0.76-2.027-0.76
		c-12.289,0-28.633,33.193-36.362,54.479v0.38c-0.126,0.507-0.506,1.014-0.76,1.394c-0.253,0.127-0.507,0.38-0.887,0.507
		c-0.38,0.253-0.887,0.38-1.394,0.38c-0.253,0-0.633,0-1.013-0.127c-0.38-0.126-0.634-0.253-0.887-0.507
		c-0.633-0.507-1.14-1.394-1.14-2.28c-0.126-0.38,0-0.887,0.126-1.267l0.253-0.634l14.823-56.252
		c0.381-1.647,2.154-2.66,3.801-2.153c1.647,0.38,2.535,2.153,2.154,3.801l-5.574,21.157c7.475-13.176,16.977-25.085,26.859-25.085
		c3.928,0,5.954,1.773,7.094,3.294c3.422,4.941,0.888,13.05,0.254,14.95l-2.407,9.502c-1.773,5.574-5.321,20.904-0.887,26.985
		c1.267,1.647,3.04,2.407,5.701,2.407c10.136,0,17.104-19.004,19.004-26.353c0.38-1.646,2.027-2.66,3.675-2.28
		C340.678,88.511,341.691,90.159,341.311,91.805z"/>
	<path fill="#FFFFFF" d="M380.209,91.552c-0.887,3.801-9.502,31.293-31.674,31.293c-20.271,0-15.71-23.691-12.543-34.841
		l8.109-28.506h-9.123c-1.773,0-3.04-1.268-3.04-3.041c0-1.646,1.267-2.914,3.04-2.914h10.896l6.715-23.438
		c0.506-1.646,2.027-2.66,3.674-2.153c1.52,0.38,2.66,2.027,2.154,3.674l-6.336,21.918h7.096c3.168,0,4.307,1.014,4.307,3.041
		c0,1.773-1.139,2.914-3.547,2.914h-9.502l-8.615,30.026c-2.154,7.475-6.334,27.239,6.715,27.239
		c19.385,0,25.213-24.705,25.592-26.226c0.508-1.9,2.154-2.534,3.801-2.154C379.576,88.764,380.588,89.905,380.209,91.552z"/>
	<path fill="#FFFFFF" d="M454.453,91.805c-0.254,1.267-7.98,31.04-24.959,31.04c-4.053,0-7.475-1.647-9.629-4.561
		c-2.025-2.661-2.912-6.335-3.166-10.136c-6.715,8.868-15.963,14.696-24.959,14.696c-5.701,0-10.77-2.407-14.189-6.842
		c-4.814-6.334-5.955-15.583-3.295-25.592c4.688-17.357,19.004-30.913,32.814-30.913c5.701,0,10.77,2.407,14.189,6.841
		c1.014,1.395,1.9,2.788,2.533,4.435l0.635-2.153c0.379-1.647,2.152-2.661,3.801-2.281c1.646,0.507,2.66,2.154,2.152,3.801
		l-4.939,18.624c-2.281,7.349-4.436,20.778-0.635,25.846c0.635,0.887,1.9,2.027,4.688,2.027c10.137,0,17.104-19.004,19.004-26.353
		c0.381-1.646,2.154-2.66,3.801-2.28C453.947,88.511,454.961,90.159,454.453,91.805z M418.6,90.539l0.254-1.141
		c1.773-7.729,0.887-14.823-2.535-19.258c-2.154-2.913-5.447-4.434-9.248-4.434c-10.77,0-23.059,12.036-26.859,26.226
		c-2.154,8.108-1.268,15.583,2.281,20.271c2.279,2.914,5.447,4.435,9.248,4.435C402.51,116.637,414.799,104.601,418.6,90.539z"/>
</g>
<g enable-background="new    ">
	<path fill="none" stroke="#FFFFFF" stroke-miterlimit="10" d="M125.542,91.805c-0.253,1.267-7.982,31.04-24.958,31.04
		c-4.054,0-7.475-1.647-9.629-4.561c-2.027-2.661-2.914-6.335-3.167-10.136c-6.715,8.868-15.963,14.696-24.958,14.696
		c-5.701,0-10.769-2.407-14.19-6.842c-4.814-6.334-5.955-15.583-3.294-25.592c4.688-17.357,19.004-30.913,32.814-30.913
		c5.701,0,10.769,2.407,14.189,6.841c1.014,1.395,1.9,2.788,2.534,4.435l0.634-2.153c0.38-1.647,2.154-2.661,3.801-2.281
		c1.647,0.507,2.661,2.154,2.154,3.801L96.53,88.764c-2.281,7.349-4.435,20.778-0.634,25.846c0.634,0.887,1.9,2.027,4.688,2.027
		c10.135,0,17.104-19.004,19.004-26.353c0.38-1.646,2.154-2.66,3.801-2.28C125.036,88.511,126.049,90.159,125.542,91.805z
		 M89.688,90.539l0.253-1.141c1.774-7.729,0.887-14.823-2.534-19.258c-2.154-2.913-5.448-4.434-9.249-4.434
		c-10.769,0-23.059,12.036-26.859,26.226c-2.154,8.108-1.267,15.583,2.281,20.271c2.28,2.914,5.448,4.435,9.249,4.435
		C73.598,116.637,85.887,104.601,89.688,90.539z"/>
	<path fill="none" stroke="#FFFFFF" stroke-miterlimit="10" d="M164.566,91.552c-0.887,3.801-9.502,31.293-31.673,31.293
		c-20.271,0-15.71-23.691-12.542-34.841l8.108-28.506h-9.122c-1.773,0-3.041-1.268-3.041-3.041c0-1.646,1.267-2.914,3.041-2.914
		h10.896l6.715-23.438c0.507-1.646,2.027-2.66,3.674-2.153c1.521,0.38,2.661,2.027,2.154,3.674l-6.335,21.918h7.095
		c3.167,0,4.308,1.014,4.308,3.041c0,1.773-1.141,2.914-3.547,2.914h-9.502l-8.615,30.026c-2.154,7.475-6.334,27.239,6.715,27.239
		c19.384,0,25.212-24.705,25.592-26.226c0.507-1.9,2.154-2.534,3.801-2.154S164.946,89.905,164.566,91.552z"/>
	<path fill="none" stroke="#FFFFFF" stroke-miterlimit="10" d="M203.716,91.805c-0.253,1.267-7.855,31.04-31.42,31.04
		c-4.561,0-8.235-1.773-10.769-4.941c-5.701-7.348-4.054-20.65-2.787-27.112c0-0.253,0-0.38,0.126-0.633
		c0.253-1.521,0.507-2.534,0.634-2.914l11.909-45.104c2.28-9.248,10.642-39.655,22.171-39.655c3.674,0,5.448,1.774,6.334,3.294
		c4.814,7.855-4.814,27.366-22.298,61.066c-4.435,8.362-8.869,16.978-12.923,25.086c-1.14,6.461-2.154,17.23,1.647,22.171
		c1.394,1.774,3.294,2.534,5.955,2.534c18.75,0,25.339-25.973,25.465-26.353c0.38-1.646,2.027-2.66,3.674-2.153
		C203.083,88.511,204.097,90.159,203.716,91.805z M172.043,63.933l-0.126,0.38L172.043,63.933z M177.364,43.662l-5.321,20.271
		c10.896-20.905,25.846-49.664,22.678-54.985c-0.127,0-0.253-0.254-1.14-0.254C189.02,8.694,181.418,27.065,177.364,43.662z"/>
	<path fill="none" stroke="#FFFFFF" stroke-miterlimit="10" d="M277.961,91.805c-0.254,1.267-7.982,31.04-24.959,31.04
		c-4.054,0-7.475-1.647-9.629-4.561c-2.027-2.661-2.914-6.335-3.167-10.136c-6.715,8.868-15.963,14.696-24.958,14.696
		c-5.701,0-10.769-2.407-14.19-6.842c-4.814-6.334-5.955-15.583-3.294-25.592c4.688-17.357,19.004-30.913,32.814-30.913
		c5.701,0,10.769,2.407,14.189,6.841c1.014,1.395,1.9,2.788,2.534,4.435l0.634-2.153c0.38-1.647,2.154-2.661,3.801-2.281
		c1.647,0.507,2.661,2.154,2.154,3.801l-4.941,18.624c-2.281,7.349-4.435,20.778-0.634,25.846c0.634,0.887,1.9,2.027,4.688,2.027
		c10.135,0,17.104-19.004,19.004-26.353c0.38-1.646,2.154-2.66,3.801-2.28C277.453,88.511,278.467,90.159,277.961,91.805z
		 M242.106,90.539l0.253-1.141c1.774-7.729,0.887-14.823-2.534-19.258c-2.154-2.913-5.448-4.434-9.249-4.434
		c-10.769,0-23.059,12.036-26.859,26.226c-2.154,8.108-1.267,15.583,2.281,20.271c2.28,2.914,5.448,4.435,9.249,4.435
		C226.016,116.637,238.305,104.601,242.106,90.539z"/>
	<path fill="none" stroke="#FFFFFF" stroke-miterlimit="10" d="M341.311,91.805c-0.252,1.267-7.98,31.04-24.958,31.04
		c-4.562,0-8.235-1.773-10.642-5.067c-7.096-9.629-0.888-30.026-0.127-32.308c2.787-10.516,4.814-16.47,3.041-19.004
		c-0.127-0.253-0.508-0.76-2.027-0.76c-12.289,0-28.633,33.193-36.362,54.479v0.38c-0.126,0.507-0.506,1.014-0.76,1.394
		c-0.253,0.127-0.507,0.38-0.887,0.507c-0.38,0.253-0.887,0.38-1.394,0.38c-0.253,0-0.633,0-1.013-0.127
		c-0.38-0.126-0.634-0.253-0.887-0.507c-0.633-0.507-1.14-1.394-1.14-2.28c-0.126-0.38,0-0.887,0.126-1.267l0.253-0.634
		l14.823-56.252c0.381-1.647,2.154-2.66,3.801-2.153c1.647,0.38,2.535,2.153,2.154,3.801l-5.574,21.157
		c7.475-13.176,16.977-25.085,26.859-25.085c3.928,0,5.954,1.773,7.094,3.294c3.422,4.941,0.888,13.05,0.254,14.95l-2.407,9.502
		c-1.773,5.574-5.321,20.904-0.887,26.985c1.267,1.647,3.04,2.407,5.701,2.407c10.136,0,17.104-19.004,19.004-26.353
		c0.38-1.646,2.027-2.66,3.675-2.28C340.678,88.511,341.691,90.159,341.311,91.805z"/>
	<path fill="none" stroke="#FFFFFF" stroke-miterlimit="10" d="M380.209,91.552c-0.887,3.801-9.502,31.293-31.674,31.293
		c-20.271,0-15.71-23.691-12.543-34.841l8.109-28.506h-9.123c-1.773,0-3.04-1.268-3.04-3.041c0-1.646,1.267-2.914,3.04-2.914h10.896
		l6.715-23.438c0.506-1.646,2.027-2.66,3.674-2.153c1.52,0.38,2.66,2.027,2.154,3.674l-6.336,21.918h7.096
		c3.168,0,4.307,1.014,4.307,3.041c0,1.773-1.139,2.914-3.547,2.914h-9.502l-8.615,30.026c-2.154,7.475-6.334,27.239,6.715,27.239
		c19.385,0,25.213-24.705,25.592-26.226c0.508-1.9,2.154-2.534,3.801-2.154C379.576,88.764,380.588,89.905,380.209,91.552z"/>
	<path fill="none" stroke="#FFFFFF" stroke-miterlimit="10" d="M454.453,91.805c-0.254,1.267-7.98,31.04-24.959,31.04
		c-4.053,0-7.475-1.647-9.629-4.561c-2.025-2.661-2.912-6.335-3.166-10.136c-6.715,8.868-15.963,14.696-24.959,14.696
		c-5.701,0-10.77-2.407-14.189-6.842c-4.814-6.334-5.955-15.583-3.295-25.592c4.688-17.357,19.004-30.913,32.814-30.913
		c5.701,0,10.77,2.407,14.189,6.841c1.014,1.395,1.9,2.788,2.533,4.435l0.635-2.153c0.379-1.647,2.152-2.661,3.801-2.281
		c1.646,0.507,2.66,2.154,2.152,3.801l-4.939,18.624c-2.281,7.349-4.436,20.778-0.635,25.846c0.635,0.887,1.9,2.027,4.688,2.027
		c10.137,0,17.104-19.004,19.004-26.353c0.381-1.646,2.154-2.66,3.801-2.28C453.947,88.511,454.961,90.159,454.453,91.805z
		 M418.6,90.539l0.254-1.141c1.773-7.729,0.887-14.823-2.535-19.258c-2.154-2.913-5.447-4.434-9.248-4.434
		c-10.77,0-23.059,12.036-26.859,26.226c-2.154,8.108-1.268,15.583,2.281,20.271c2.279,2.914,5.447,4.435,9.248,4.435
		C402.51,116.637,414.799,104.601,418.6,90.539z"/>
</g>
<g enable-background="new    ">
	<path fill="#FFFFFF" d="M152.736,172.862c-7.172,0-12.975-5.803-12.975-12.975c0-7.173,5.803-12.975,12.975-12.975
		c2.848,0,5.515,0.9,7.785,2.595l0.829,0.612c0.541,0.433,0.541,1.046-0.036,1.803l-0.757,1.009
		c-0.577,0.757-1.262,0.829-2.019,0.288l-0.504-0.396c-1.55-1.153-3.388-1.766-5.298-1.766c-4.865,0-8.83,3.964-8.83,8.83
		c0,4.865,3.965,8.83,8.83,8.83c1.262,0,2.487-0.288,3.604-0.793c0.721-0.324,1.009-0.901,1.009-1.694v-2.559
		c0-0.938-0.504-1.441-1.441-1.441h-2.811c-0.937,0-1.442-0.505-1.442-1.442v-1.261c0-0.938,0.505-1.441,1.442-1.441h6.992
		c0.937,0,1.442,0.504,1.442,1.441v8.866c0,0.757-0.216,1.261-0.793,1.729C158.431,171.925,155.655,172.862,152.736,172.862z"/>
	<path fill="#FFFFFF" d="M177.754,151.417c-0.937,0-1.441,0.505-1.441,1.441v3.784c0,0.938,0.504,1.442,1.441,1.442h9.19
		c0.937,0,1.442,0.504,1.442,1.441v1.261c0,0.938-0.505,1.442-1.442,1.442h-9.19c-0.937,0-1.441,0.504-1.441,1.441v3.244
		c0,0.937,0.504,1.441,1.441,1.441h10.993c0.937,0,1.441,0.504,1.441,1.441v1.262c0,0.937-0.504,1.441-1.441,1.441h-15.137
		c-0.937,0-1.442-0.505-1.442-1.441v-22.346c0-0.938,0.505-1.441,1.442-1.441h15.137c0.937,0,1.441,0.504,1.441,1.441v1.262
		c0,0.937-0.504,1.441-1.441,1.441H177.754z"/>
	<path fill="#FFFFFF" d="M209.763,172.862c-7.172,0-12.975-5.803-12.975-12.975c0-7.173,5.802-12.975,12.975-12.975
		s12.975,5.802,12.975,12.975C222.738,167.059,216.936,172.862,209.763,172.862z M209.763,151.057c-4.866,0-8.83,3.964-8.83,8.83
		c0,4.865,3.964,8.83,8.83,8.83s8.83-3.965,8.83-8.83C218.593,155.021,214.629,151.057,209.763,151.057z"/>
	<path fill="#FFFFFF" d="M246.782,172.501c-0.793,0-1.298-0.288-1.766-0.901l-6.019-8.577c-0.433-0.613-0.937-0.901-1.73-0.901
		h-1.189c-0.937,0-1.441,0.505-1.441,1.441v7.497c0,0.937-0.504,1.441-1.442,1.441h-1.153c-0.937,0-1.441-0.505-1.441-1.441v-22.346
		c0-0.938,0.504-1.441,1.441-1.441h10.164c4.037,0,7.064,3.063,7.064,7.388c0,3.389-1.766,5.983-4.469,6.992
		c-1.009,0.396-1.297,0.974-0.721,1.838l5.118,7.245c0.685,1.009,0.289,1.766-0.901,1.766H246.782z M234.636,156.643
		c0,0.938,0.504,1.442,1.441,1.442h6.091c2.126,0,3.063-1.658,3.063-3.425c0-1.693-0.937-3.352-3.027-3.352h-6.127
		c-0.937,0-1.441,0.505-1.441,1.441V156.643z"/>
	<path fill="#FFFFFF" d="M269.96,172.862c-7.172,0-12.975-5.803-12.975-12.975c0-7.173,5.803-12.975,12.975-12.975
		c2.848,0,5.514,0.9,7.786,2.595l0.828,0.612c0.541,0.433,0.541,1.046-0.035,1.803l-0.758,1.009
		c-0.576,0.757-1.262,0.829-2.018,0.288l-0.505-0.396c-1.55-1.153-3.388-1.766-5.298-1.766c-4.865,0-8.83,3.964-8.83,8.83
		c0,4.865,3.965,8.83,8.83,8.83c1.262,0,2.487-0.288,3.604-0.793c0.721-0.324,1.009-0.901,1.009-1.694v-2.559
		c0-0.938-0.504-1.441-1.441-1.441h-2.811c-0.937,0-1.442-0.505-1.442-1.442v-1.261c0-0.938,0.505-1.441,1.442-1.441h6.991
		c0.938,0,1.442,0.504,1.442,1.441v8.866c0,0.757-0.216,1.261-0.793,1.729C275.655,171.925,272.88,172.862,269.96,172.862z"/>
	<path fill="#FFFFFF" d="M295.051,171.06c0,0.937-0.505,1.441-1.441,1.441h-1.226c-0.937,0-1.442-0.505-1.442-1.441v-22.346
		c0-0.938,0.506-1.441,1.442-1.441h1.226c0.937,0,1.441,0.504,1.441,1.441V171.06z"/>
	<path fill="#FFFFFF" d="M318.66,147.273c0.829,0,1.369,0.36,1.658,1.117l8.975,22.453c0.432,1.01-0.037,1.658-1.117,1.658h-1.514
		c-0.83,0-1.37-0.36-1.658-1.117l-1.226-3.027c-0.288-0.757-0.829-1.117-1.657-1.117h-9.012c-0.828,0-1.369,0.36-1.657,1.117
		l-1.226,3.027c-0.288,0.757-0.828,1.117-1.658,1.117h-1.514c-1.08,0-1.549-0.648-1.117-1.658l8.975-22.453
		c0.289-0.757,0.829-1.117,1.658-1.117H318.66z M318.588,155.31c-0.504-1.189-1.441-1.189-1.945,0l-2.415,6.055
		c-0.396,1.009,0.071,1.658,1.153,1.658h4.469c1.082,0,1.55-0.649,1.153-1.658L318.588,155.31z"/>
</g>
<g>
	<g enable-background="new    ">
		<path fill="#FFFFFF" d="M37.367,177.433c-7.702,0.757-13.941-0.987-18.176-5.482c-8.845-8.952-7.335-26.386-5.936-43.025
			c0.881-12.265,2.191-25.948-2.043-30.442c-0.414-0.353-1.881-1.779-6.202-1.355c-2.629,0.258-4.718-1.698-4.985-4.421
			c-0.249-2.529,1.419-4.854,4.048-5.113c11.083-1.089,12.079-12.187,11.907-35.153C15.698,30.272,15.463,2.793,42.699,0.118
			c2.442-0.24,4.718,1.698,4.986,4.42c0.249,2.53-1.607,4.873-4.049,5.113C26.167,11.367,25.048,26.996,25.26,52.315
			c0.12,14.721,0.373,30.803-7.897,39.278c0.188-0.019,0.207,0.176,0.395,0.157c7.189,7.544,5.993,22.395,4.686,38.041
			c-1.103,13.859-2.411,29.506,3.292,35.429c2.315,2.325,5.811,3.161,10.694,2.681c2.629-0.258,4.906,1.679,5.173,4.403
			C41.852,174.832,39.996,177.174,37.367,177.433z"/>
	</g>
</g>
<g>
	<g enable-background="new    ">
		<path fill="#FFFFFF" d="M451.745,172.047c0.414-2.705,2.792-4.517,5.404-4.117c4.851,0.743,8.386,0.098,10.823-2.101
			c6.014-5.606,5.551-21.301,5.196-35.2c-0.463-15.695-0.854-30.588,6.73-37.734c0.187,0.029,0.216-0.165,0.401-0.136
			c-7.801-8.908-6.681-24.954-5.769-39.647c1.577-25.272,1.302-40.938-16.049-43.594c-2.425-0.371-4.151-2.812-3.767-5.323
			c0.414-2.706,2.791-4.518,5.216-4.146c27.053,4.142,25.337,31.568,23.859,53.69c-1.408,22.924-1.013,34.061,9.994,35.745
			c2.612,0.4,4.153,2.812,3.769,5.324c-0.414,2.705-2.605,4.545-5.218,4.145c-4.291-0.657-5.833,0.69-6.266,1.019
			c-4.471,4.26-3.899,17.994-3.682,30.29c0.501,16.689,1.07,34.181-8.245,42.644c-4.471,4.26-10.795,5.665-18.445,4.494
			C453.088,177,451.361,174.559,451.745,172.047z"/>
	</g>
</g>
</svg>
