<?xml version="1.0" encoding="utf-8"?>
<!-- Generator: Adobe Illustrator 16.0.4, SVG Export Plug-In . SVG Version: 6.00 Build 0)  -->
<!DOCTYPE svg PUBLIC "-//W3C//DTD SVG 1.1//EN" "http://www.w3.org/Graphics/SVG/1.1/DTD/svg11.dtd">
<svg version="1.1" id="Layer_1" xmlns="http://www.w3.org/2000/svg" xmlns:xlink="http://www.w3.org/1999/xlink" x="0px" y="0px"
	 width="101.405px" height="129.974px" viewBox="0 0 101.405 129.974" enable-background="new 0 0 101.405 129.974"
	 xml:space="preserve">
<g>
	<g>
		<g>
			<path fill="#D2A682" d="M54.668,122.491c0.332-5.684-0.496-11.457-0.508-17.16c-0.002-0.806-1.252-0.806-1.25,0
				c0.012,5.703,0.84,11.477,0.508,17.16C53.371,123.297,54.621,123.292,54.668,122.491L54.668,122.491z"/>
		</g>
	</g>
	<g>
		<g>
			<path fill="#D2A682" d="M56.842,122.288c0.297-5.985,0.586-12.406,0.051-18.374c-0.07-0.796-1.322-0.803-1.25,0
				c0.535,5.968,0.246,12.389-0.051,18.374C55.553,123.094,56.803,123.09,56.842,122.288L56.842,122.288z"/>
		</g>
	</g>
	<g>
		<g>
			<path fill="#D2A682" d="M44.488,105.666c2.242,2.689,3.223,5.857,4.25,9.143c0.831,2.659,2.193,5.102,2.652,7.849
				c0.133,0.794,1.337,0.456,1.205-0.332c-0.516-3.082-2.029-5.857-2.967-8.853c-0.995-3.186-2.098-6.101-4.258-8.691
				C44.855,104.162,43.976,105.051,44.488,105.666L44.488,105.666z"/>
		</g>
	</g>
	<g>
		<g>
			<path fill="#D2A682" d="M58.867,122.34c0.389-4.787,0.029-9.593,0.508-14.375c0.08-0.802-1.17-0.794-1.25,0
				c-0.479,4.782-0.119,9.588-0.508,14.375C57.553,123.144,58.803,123.138,58.867,122.34L58.867,122.34z"/>
		</g>
	</g>
	<g>
		<path fill="#D1A581" d="M51.972,122.541c1.837,0.162,3.563-0.217,5.345-0.217c0.594,0,0.648-0.107,0.92,0.379
			c0.268,0.593,0,2.159,0,2.86c0,0.757,0.215,1.999-0.217,2.7c-0.434,0.648-1.566,0.864-2.322,0.973c-1.295,0.161-3.024,0-3.4-1.458
			c-0.377-1.403-0.325-3.024-0.377-4.536c0-0.162-0.055-0.378-0.055-0.595"/>
		<g>
			<path fill="#D2A682" d="M51.972,123.166c1.884,0.119,3.761-0.178,5.644-0.224c0.115-0.003,0.041,3.612,0.051,3.992
				c0.041,1.872-2.82,2.046-4.121,1.466c-1.47-0.655-0.939-4.414-1.055-5.753c-0.068-0.797-1.319-0.804-1.25,0
				c0.183,2.124-0.461,5.516,1.674,6.833c1.467,0.904,4.428,0.52,5.549-0.774c0.627-0.728,0.455-1.968,0.408-2.838
				c-0.061-1.108,0.301-2.243-0.031-3.331c-0.227-0.744-0.854-0.854-1.523-0.838c-1.785,0.044-3.556,0.33-5.345,0.217
				C51.166,121.865,51.172,123.115,51.972,123.166L51.972,123.166z"/>
		</g>
	</g>
	<g>
		<path fill="#E52F39" d="M32.73,2.776c-2.633,0-4.149,0.708-6.581,1.924c-2.429,1.316-5.263,2.126-7.39,3.949
			c-5.771,4.96-9.291,11.642-10.202,19.032c-0.204,2.328,0.067,4.859-0.033,7.188c0,0.506,0.315,1.722,0.517,2.127
			c0.709,1.012,4.15,0.404,5.265,0.304c1.114-0.202,2.328-0.202,2.733-1.316c0.506-1.316-0.101-4.354-0.101-5.771
			c0.303-6.177,1.619-12.554,4.048-18.325c2.024-4.859,6.886-8.302,11.946-9.212"/>
	</g>
	<g>
		<path fill="#E52F39" d="M49.037,0.487c5.346-0.347,9.748-1.628,12.889,3.867c2.166,3.662,3.682,7.428,4.982,11.396
			c0.973,3.053,1.082,5.394,1.299,8.446c0.109,1.934,1.408,4.885,0.65,6.818c-1.084,2.238-8.123,1.221-10.291,1.221
			c-2.381,0-3.139,0.202-3.896-2.035c-1.084-3.562-0.977-7.326-1.734-10.99c-1.082-5.088-2.707-9.972-3.356-15.163
			c-0.217-1.118-0.217-2.237-0.649-3.256"/>
	</g>
	<g>
		<path fill="#E52F39" d="M18.456,64.951c1.757-0.415,3.721-1.452,5.581-1.452c2.17,0.104,2.952,0.45,3.985,2.11
			c1.964,3.424,3.352,8.37,5.418,11.69c3.824,6.538,7.829,13.091,11.136,19.732c-1.24,0.727-2.686,0.695-3.306-0.445
			c-1.239-1.972-3.248-3.563-4.592-5.327c-2.377-3.01-4.287-5.994-6.854-9.186c-1.562-1.943-3.308-3.736-4.754-5.707
			c-1.653-2.388-2.877-4.686-4.116-7.28c-0.724-1.557-1.36-2.786-2.292-4.136"/>
	</g>
	<g>
		<path fill="#E52F39" d="M54.801,60.381c3.037,0,6.074-0.101,9.111,0.102c0.404,0.101,1.924,0,2.328,0.304
			c1.014,1.113-0.809,6.581-1.113,7.896c-1.113,4.656-1.924,9.517-2.732,14.274c-0.506,3.037-0.506,5.871-1.418,8.808
			c-0.506,1.418-0.469,2.381-0.607,3.847c-0.059,0.608-2.836,0.811-3.238,0.608c-0.203-0.101-2.012-0.349-2.113-0.45
			c-0.709-0.506-0.52-2.891-0.52-3.6c0-8.403-0.418-16.906-0.418-25.31c0-2.228,0.721-3.847,0.619-5.871
			c0-0.203-0.102-0.306-0.102-0.406"/>
	</g>
	<g>
		<path fill="#E52F39" d="M89.424,62.507c0.912,0.203,2.127,0.304,2.936,0.71c1.316,0.708,1.217,0.708,0.203,2.226
			c-4.354,6.581-10.023,12.453-14.477,19.034c-1.316,1.922-3.039,3.645-4.051,5.771c-0.707,1.417-1.316,2.833-2.227,4.149
			c-0.709,1.013-2.227,3.848-3.746,2.633c-1.518-1.215,2.328-5.77,3.139-6.985c1.418-2.327,2.936-4.455,4.252-6.783
			c1.316-2.125,2.227-4.454,3.746-6.479c3.34-4.555,6.682-9.11,9.82-13.869"/>
	</g>
	<g>
		<path fill="#E52F39" d="M75.756,3.891c1.822,0.81,3.949,0.81,5.77,1.518c2.432,0.912,4.76,2.329,6.684,4.151
			c3.947,3.645,7.896,9.313,10.123,14.274c1.316,2.936,1.619,6.074,1.824,9.213c0.199,2.227,1.213,3.645-1.521,3.645
			c-2.426,0-3.643-1.089-3.541-3.215c0.102-4.251-0.406-9.137-2.227-12.883c-3.443-7.188-9.416-14.071-17.414-16.399"/>
	</g>
	<g>
		<path fill="#1F305F" d="M19.53,7.688C11.713,10.393,4.081,18.193,2.222,25.038c-1.118,3.98-2.421,11.94-0.372,15.602
			c2.978,0,1.487-8.597,1.487-10.665c0-3.503,0.744-6.209,2.421-9.234C8.364,15.805,13.39,9.597,19.53,7.688"/>
		<g>
			<path fill="#1E315E" d="M19.364,7.085C12.107,9.874,6.006,15.278,2.569,22.277C0.066,27.371-1.075,35.682,1.31,40.955
				c0.118,0.261,0.453,0.343,0.706,0.287c3.638-0.802,2.236-7.536,2.02-10.025C3.22,21.829,11.049,11.439,19.696,8.29
				C20.447,8.017,20.123,6.809,19.364,7.085c-9.739,3.547-17.41,14.56-16.506,24.97c0.086,0.995,0.155,1.988,0.206,2.986
				c0.027,0.521-0.737,5.509-1.332,3.468c-1.015-3.479-0.122-7.782,0.576-11.215c1.79-8.809,9.202-15.856,17.388-19.004
				C20.441,8.004,20.117,6.795,19.364,7.085L19.364,7.085z"/>
		</g>
	</g>
	<g>
		<path fill="#268E45" d="M20.379,7.435C14.508,8.346,8.23,15.026,5.902,19.988c-1.316,2.935-2.328,6.478-2.936,9.719
			c-0.203,1.315-0.404,2.53-0.304,3.948c0.101,1.519,1.417,4.454,0.202,5.669c1.519,0.606,3.34,0.304,4.758-0.405
			c1.823-0.911,1.62-1.519,1.519-3.442c-0.202-4.049,0-8.302,1.013-12.351c1.519-5.973,5.366-12.048,10.225-15.793"/>
	</g>
	<g>
		<path fill="#268E45" d="M14.812,67.469c0.304-0.912,1.519-1.823,2.43-2.125c1.418-0.305,1.316,0,2.227,1.012
			c3.038,3.543,5.062,7.592,7.897,11.236c3.14,3.848,5.162,8.1,8.604,11.745c1.721,1.821,5.163,5.062,5.366,7.693
			c-0.607,0.102-1.216,0.304-1.62,0.606c-1.822-1.215-2.632-2.732-3.947-4.454c-1.925-2.632-4.05-5.265-6.177-7.694
			c-3.24-3.745-7.344-7.188-10.179-11.236c-1.821-2.632-2.577-4.656-4.702-6.885"/>
	</g>
	<g>
		<path fill="#268E45" d="M43.26,59.223c0.202,2.329,1.821,4.196,2.025,6.626c0.506,3.544,0.303,6.895,0.81,10.54
			c0.708,4.757,2.126,9.91,3.139,14.668c0.303,1.114,0.82,3.711,1.53,4.723c0.605,0.912,0.595,0.138,1.81,0.238
			c0.608,0,2.429-0.101,2.833-0.404c1.217-0.709,0.607-4.05,0.607-5.265c-0.607-8.909-0.707-17.616-0.91-26.524
			c0-1.519,0.404-5.467-0.709-6.479c-1.213-1.215-5.466-0.81-6.984-0.304c-0.709,0.304-1.215,0.709-1.925,0.912"/>
	</g>
	<g>
		<path fill="#268E45" d="M41.226,0.753c2.084,0,4.169-0.304,6.252-0.204c1.472,0.102,1.594-0.1,2.452,1.014
			c1.103,1.315,1.839,3.947,2.329,5.567c1.226,3.847,0.614,8.201,1.226,12.148c0.49,3.038,0.734,5.974,0.857,9.01
			c0.123,1.823,0.736,3.443-0.244,5.164c-1.715,3.341-8.46,4.049-11.523,1.417c-3.311-3.035-1.84-10.528-1.962-14.275
			c-0.246-4.655,0-9.414,0-14.07c0-1.823-0.368-3.746,0-5.469"/>
	</g>
	<g>
		<path fill="#268E45" d="M70.906,2.878c7.492,0,16.998,6.782,20.34,12.857c3.846,6.783,5.568,12.756,4.859,20.146
			c-1.014,0-3.037-0.304-3.949-0.81c-1.012-0.507-2.896-0.562-3.1-1.776c-0.506-2.431-0.037-3.691-1.051-6.222
			c-1.014-2.733-0.203-6.175-1.213-8.909c-1.723-4.15-4.455-7.491-7.189-10.934c-1.215-1.519-4.859-3.948-7.189-3.646"/>
	</g>
	<g>
		<path fill="#268E45" d="M82.943,62.002c1.115,0.101,4.859-0.102,5.771,0.91c1.012,1.115-1.215,3.848-2.023,4.961
			c-1.521,2.328-3.24,4.859-4.859,7.087c-2.025,2.632-3.596,5.669-5.469,8.099c-2.547,3.308-3.949,7.391-6.58,10.63
			c-0.506,0.811-1.922,3.948-3.037,3.24c-1.316-0.81,4.961-11.441,5.467-12.959c2.834-6.884,4.961-14.882,9.619-20.753
			c0.201-0.406,0.506-0.709,0.809-1.114"/>
	</g>
	<g>
		<path fill-rule="evenodd" clip-rule="evenodd" fill="#1F305F" d="M42.752,0.65C28.378-0.563,27.365,19.075,27.365,28.997
			c0,8.706,2.632,16.604,4.455,24.905c0.809,4.656,2.116,8.605,3.938,12.857c2.025,4.454,2.946,9.011,4.361,13.666
			c1.013,3.646,2.835,7.291,4.456,10.529c1.62,3.441,2.429,4.86,6.072,5.265c0.609-2.835-1.415-7.492-1.82-10.325
			c-1.014-4.657-1.418-9.518-2.43-14.175c-1.62-9.111-3.24-18.224-4.05-27.536c-0.81-8.707-1.417-17.413-1.417-26.322
			c0-3.442-0.203-7.087,0.201-10.528c0.204-2.431,1.216-4.455,1.418-6.683"/>
	</g>
	<g>
		<path fill-rule="evenodd" clip-rule="evenodd" fill="#1E315E" d="M58.344,0.145c9.719,1.013,19.438,2.024,25.107,11.136
			c3.24,5.062,7.086,15.794,5.467,21.665c-3.037-0.606-7.492,0.405-8.707-2.024c-1.012-1.62-0.201-5.872-0.607-7.896
			c-0.605-3.037-1.619-5.468-2.834-8.1C73.73,9.257,66.443-0.059,58.951,0.145"/>
	</g>
	<g>
		<path fill-rule="evenodd" clip-rule="evenodd" fill="#1E315E" d="M75.656,61.191c1.215,0.203,7.572-1.291,7.686,0
			c0.266,3.037-5.459,12.351-6.674,14.983c-1.215,2.429-8.301,21.058-11.338,21.058c-0.846-0.064,0,0-1.648-0.478
			c-2.439-0.705,2.652-8.208,3.064-9.445c1.012-4.049,1.822-8.099,3.037-12.147c1.418-4.657,2.836-9.517,5.264-13.768"/>
	</g>
	<g>
		<path fill="#1E315E" d="M11.227,66.566c1.278-0.318,2.011-0.275,3.13,0.202c1.12,0.635,2.56,3.018,3.518,3.97
			c2.558,2.7,4.956,5.561,7.034,8.577c4.636,6.352,10.55,11.594,14.707,18.423c-3.038-2.202-5.301-5.417-7.858-8.276
			c-2.399-2.699-4.959-5.477-7.517-7.858c-4.637-4.447-8.234-9.412-12.616-14.372"/>
	</g>
	<g>
		<path fill="#F7DB48" d="M44.734,97.672c-0.199,0-0.397,0-0.594,0c-0.113-0.37-0.167-0.771-0.344-1.107
			c-1.1-2.082-2.199-4.164-3.35-6.219c-2.648-4.732-5.368-9.425-7.982-14.177c-1.936-3.521-3.752-7.109-5.617-10.668
			c-0.711-1.355-0.706-1.356-2.166-0.926c-0.406,0.118-0.809,0.281-1.224,0.331c-1.634,0.191-3.148,1.062-4.89,0.704
			c-1.367-0.279-2.519-0.849-3.468-1.842c-0.244-0.257-0.417-0.586-0.621-0.881c-0.074,0.066-0.15,0.131-0.225,0.198
			c0.202,0.945,0.403,1.892,0.611,2.836c0.213,0.958-0.232,1.986-1.1,2.338c-0.882,0.36-1.518-0.054-1.981-0.797
			c-1.735-2.78-3.479-5.557-5.184-8.355c-0.255-0.416-0.705-1.009,0.215-1.319c0.067-0.023,0.084-0.3,0.068-0.453
			c-0.115-1.166-0.243-2.332-0.381-3.625c-2.646-1.55-3.359-1.667-4.076-4.558c-0.165-0.67-0.325-1.343-0.457-2.02
			c-0.279-1.438-0.538-2.879-0.806-4.317c0-0.661,0-1.32,0-1.979c0.666-0.811,1.905-1.333,2.474-0.86
			c0.7,0.583,1.22,1.384,1.625,1.863c0.463-1.071,0.861-2.312,1.51-3.405c0.664-1.117,1.537-2.062,3.002-2.307
			c1.955-0.326,3.868-0.918,5.828-1.218c1.25-0.189,1.458-0.232,1.417-1.55c-0.06-1.973-0.201-3.945-0.184-5.918
			c0.013-1.337,0.2-2.676,0.382-4.004c0.229-1.687,0.411-3.394,0.828-5.035c0.69-2.733,1.82-5.305,3.352-7.688
			c1.602-2.49,3.623-4.559,6.216-5.991c1.354-0.748,2.8-1.345,4.24-1.914c0.85-0.336,3.868-0.929,4.757-1.162
			c0.089,0.101-1.208,0.521-1.121,0.623c-0.16,0.319-0.981,0.8-1.201,1.07c-0.597,0.733-1.382,1.351-1.833,2.158
			c-0.985,1.758-2.031,3.534-2.645,5.435c-0.836,2.6-1.633,5.295-1.833,7.995c-0.306,4.1-0.066,8.237-0.103,12.358
			c-0.007,0.882,0.405,1.248,1.18,1.175c1.882-0.179,3.758-0.419,5.634-0.655c1.651-0.208,3.294-0.492,4.949-0.646
			c0.547-0.052,1.117,0.219,1.682,0.3c1.067,0.155,2.218,0.076,3.192,0.457c1.877,0.733,2.965,2.325,3.725,4.369
			c0.19-0.611,0.337-1.036,0.454-1.468c0.414-1.516,1.453-2.587,2.659-3.462c0.91-0.66,1.958-1.136,2.962-1.659
			c0.162-0.084,0.426-0.026,0.629,0.027c0.449,0.118,0.883,0.383,1.33,0.397c1.518,0.052,3.037,0.019,4.555,0.021
			c1.352,0.001,2.738-0.177,4.043,0.072c0.908,0.173,1.473-0.432,2.234-0.466c0.1-0.004,0.262-0.419,0.256-0.64
			c-0.062-2.266-0.07-4.538-0.252-6.795c-0.326-4.006-1.258-7.897-2.604-11.674c-1.051-2.957-2.225-5.891-4.543-8.142
			c-0.816-0.792-1.777-1.436-2.668-2.143c1.178-0.694,2.395-0.194,3.584-0.007c1.58,0.249,3.123,0.597,4.49,1.549
			c0.936,0.321,1.705,0.679,2.568,1.156c1.443,0.798,2.494,1.203,3.219,1.918c3.221,3.192,5.172,7.171,6.643,11.405
			c0.289,0.827,0.479,1.687,0.738,2.523c0.336,1.081,0.842,2.131,1.02,3.236c0.455,2.813,0.768,5.649,1.145,8.536
			c0.008,0.003,0.094,0.055,0.184,0.064c1.232,0.135,2.479,0.203,3.697,0.408c2.039,0.346,4.051,0.865,6.098,1.146
			c1.711,0.234,2.801,1.175,3.555,2.593c0.361,0.68,0.547,1.454,0.789,2.122c0.799-1.188,1.592-2.366,2.375-3.534
			c1.357,0.691,2.582,1.314,4,2.039c0.055,0.537-0.162,1.382-0.076,2.207c0.279-0.021-1.365,13.583-3.486,18.702
			c-0.461,1.114-0.887,2.032-1.553,3.019c-1.182,1.749-2.033,3.721-3.051,5.581c-0.404,0.735-1.002,0.744-1.646,0.212
			c-0.471-0.39-1.008-0.836-1.574-0.94c-0.977-0.179-1.064-0.8-1.117-1.549c-0.051-0.789-0.119-1.577-0.184-2.383
			c-0.748,0.659-1.314,1.405-2.066,1.767c-1.625,0.78-3.41,0.794-5.174,0.581c-1.809-0.219-3.611-0.494-5.379-0.739
			c-0.689,2.103-1.359,4.202-2.059,6.293c-1.35,4.041-2.717,8.079-4.076,12.116c-0.281,0.831-0.529,1.676-0.857,2.489
			c-0.406,1.006-0.914,1.972-1.314,2.979c-0.344,0.868-0.604,1.771-0.904,2.658c-0.785,2.309-1.557,4.623-2.377,6.921
			c-0.178,0.498-0.494,1.291-0.82,1.329c-1.295,0.149-2.666,0.329-3.848-0.521c0.975-2.733,6.236-33.295,6.008-34.609
			c-1.293,0-2.564,0.021-3.836-0.006c-1.242-0.026-2.496-0.232-3.723-0.124c-2.131,0.19-3.926-0.802-5.833-1.409
			c-0.17-0.055-0.313-0.229-0.434-0.377c-0.692-0.847-1.372-1.701-2.074-2.578c-0.065,0.119-0.163,0.249-0.21,0.395
			c-0.91,2.819-2.482,4.085-5.35,4.307c-0.128,0.01-0.248,0.074-0.376,0.104c-2.239,0.501-4.475,1.032-6.802,0.88
			c-0.578-0.037-1.162-0.006-1.957-0.006c3.838,11.645,8.486,22.789,12.737,34.132c-0.34,0.111-0.659,0.253-0.993,0.322
			C46.242,97.42,45.485,97.538,44.734,97.672z M65.412,40.877c-0.934,0-1.779-0.038-2.623,0.012
			c-0.635,0.038-0.771,0.574-0.467,1.131c0.242,0.442,0.482,1.033,0.385,1.486c-0.283,1.332-0.723,2.635-1.141,3.938
			c-0.082,0.259-0.334,0.463-0.508,0.692c-0.262-0.22-0.654-0.39-0.764-0.671c-0.428-1.08-0.74-2.206-1.15-3.294
			c-0.25-0.665-0.119-1.33,0.35-1.677c0.748-0.551,0.451-1.154,0.445-1.856c-0.961,0-1.85-0.039-2.729,0.021
			c-0.334,0.021-0.896,0.242-0.92,0.429c-0.049,0.371,0.191,0.786,0.334,1.175c0.107,0.293,0.414,0.615,0.352,0.854
			c-0.338,1.36-0.762,2.699-1.154,4.045c-0.654-1.055-1.133-2.033-1.461-3.061c-0.162-0.5-0.275-1.356-0.006-1.589
			c0.721-0.626,0.414-1.189,0.291-1.732c-1.558,0-3.036,0-4.558,0c-0.048,0.939-0.306,1.784,0.894,2.045
			c0.258,0.057,0.554,0.383,0.655,0.651c0.87,2.344,1.729,4.693,2.532,7.062c0.281,0.835,0.662,1.255,1.574,0.901
			c0.238-0.091,0.5-0.121,0.691-0.166c0.459-1.425,0.898-2.8,1.371-4.275c1.299,0.771,1.369,2.031,1.729,3.089
			c0.232,0.676,0.359,1.219,1.242,1.206c0.879-0.014,0.805-0.696,0.986-1.211c0.801-2.277,1.582-4.56,2.396-6.832
			c0.119-0.322,0.314-0.758,0.58-0.86C65.48,42.106,65.451,41.579,65.412,40.877z M37.444,51.246
			c0.143,1.531,0.211,1.559,1.568,1.367c1.395-0.194,2.798-0.334,4.2-0.462c1.471-0.138,2.664-0.789,3.488-1.987
			c1.514-2.204,0.984-5.467-0.979-7.268c-1.107-1.017-2.414-1.898-4.102-1.649c-1.771,0.261-3.545,0.504-5.312,0.803
			c-0.188,0.032-0.436,0.376-0.453,0.591c-0.024,0.303,0.143,0.62,0.223,0.919c0.972,0.076,1.601,0.767,1.728,1.756
			c0.18,1.39,0.301,2.8,0.648,4.149C38.729,50.525,38.522,51.092,37.444,51.246z M19.042,51.001c-0.339-0.238-0.68-0.37-0.849-0.618
			c-0.6-0.881-1.156-1.793-1.694-2.714c-0.117-0.201-0.105-0.483-0.126-0.73c-0.043-0.543,0.128-1.296-0.161-1.568
			c-0.273-0.259-1.038-0.078-1.558,0.037c-0.299,0.065-0.775,0.407-0.76,0.586c0.039,0.401,0.32,0.787,0.532,1.163
			c0.134,0.237,0.42,0.428,0.467,0.67c0.207,1.082,0.363,2.176,0.514,3.268c0.026,0.193-0.061,0.403-0.097,0.605
			c-0.087,0.028-0.174,0.057-0.261,0.084c-0.67-1.262-1.341-2.523-2.004-3.789c-0.025-0.05-0.018-0.146,0.015-0.191
			c0.591-0.787-0.117-1.229-0.399-1.77c-1.641,0.076-2.079,0.687-0.904,2.331c0.206,0.287,0.357,0.611,0.543,0.915
			c1.252,2.069,2.524,4.124,3.749,6.211c0.394,0.67,0.813,0.572,1.313,0.292c0.247-1.387-0.907-2.598-0.374-4.196
			c0.3,0.372,0.468,0.553,0.605,0.756c0.539,0.793,1.022,1.631,1.624,2.371c0.231,0.285,0.856,0.591,1.074,0.472
			c0.383-0.212,0.804-0.726,0.831-1.139c0.066-0.938-0.084-1.895-0.171-2.841c-0.155-1.687-0.359-3.37-0.476-5.06
			c-0.043-0.626,0.103-1.265,0.184-2.097c-0.882,0.155-1.528,0.213-2.133,0.4c-0.283,0.089-0.727,0.507-0.683,0.64
			c0.133,0.401,0.459,0.741,0.727,1.093c0.139,0.184,0.444,0.339,0.448,0.513C19.058,48.039,19.042,49.384,19.042,51.001z
			 M71.988,45.498c-0.441-0.042-0.828-0.062-1.211-0.118c-0.367-0.054-0.725-0.145-0.992-0.199c0-0.622,0.027-1.084-0.008-1.54
			c-0.043-0.558-0.227-1.307,0.539-1.344c1.004-0.05,2.023,0.183,3.033,0.317c0.047,0.007,0.098,0.24,0.086,0.362
			c-0.111,1.087,0.498,1.174,1.398,1.007c0-0.82,0.041-1.613-0.025-2.396c-0.02-0.231-0.328-0.62-0.518-0.625
			c-1.576-0.049-3.15-0.022-4.73-0.025c-0.254,0-0.51-0.021-0.766-0.045c-0.721-0.067-1.439-0.141-2.131-0.209
			c-0.178,0.779-0.311,1.305,0.467,1.554c0.18,0.058,0.363,0.468,0.352,0.708c-0.09,2.037-0.213,4.072-0.361,6.106
			c-0.018,0.246-0.197,0.631-0.383,0.69c-0.816,0.255-0.658,0.792-0.561,1.401c0.525,0,0.984-0.026,1.439,0.005
			c1.736,0.119,3.469,0.269,5.207,0.375c0.25,0.015,0.699-0.102,0.74-0.245c0.23-0.855,0.371-1.736,0.547-2.642
			c-1.27-0.019-1.252-0.015-1.471,0.905c-0.051,0.214-0.25,0.548-0.398,0.557c-0.902,0.051-1.809,0.025-2.854,0.025
			c0.199-1.281,0.354-2.286,0.529-3.421c0.584,0,1.27,0,1.979,0C71.934,46.224,71.959,45.879,71.988,45.498z M36.985,52.711
			c-0.396-1.523-0.733-2.906-1.142-4.268c-0.059-0.194-0.519-0.434-0.717-0.378c-0.233,0.063-0.482,0.401-0.549,0.664
			c-0.087,0.333-0.019,0.716,0.025,1.072c0.103,0.806-0.121,1.396-1.017,1.466c-0.864,0.064-1.303-0.451-1.495-1.242
			c-0.247-1.015-0.558-2.016-0.746-3.039c-0.193-1.038-0.53-2.062,0.243-3.107c0.473-0.638,0.031-1.458-0.679-1.418
			c-1.228,0.067-2.453,0.269-3.655,0.528c-0.237,0.052-0.481,0.617-0.512,0.963c-0.038,0.469,0.243,0.731,0.815,0.726
			c0.301-0.002,0.807,0.287,0.874,0.538c0.511,1.898,0.963,3.817,1.361,5.742c0.052,0.246-0.307,0.573-0.463,0.869
			c-0.152,0.286-0.457,0.619-0.402,0.864c0.156,0.677,0.674,0.842,1.364,0.756C32.421,53.183,34.557,52.975,36.985,52.711z
			 M79.359,30.702c-2.361-1.542-4.41-3.21-5.021-6.141c-0.195,3.19-2.211,4.663-4.916,5.634c2.799,0.817,4.312,2.812,5.309,5.332
			C75.797,33.372,76.662,31.229,79.359,30.702z M81.406,41.225c-0.846,0.058-1.57,0.25-2.23,0.12
			c-1.418-0.278-2.525,0.424-2.766,1.833c-0.268,1.564,0.096,2.817,1.414,3.803c0.441,0.33,0.797,0.871,1.006,1.389
			c0.285,0.703-0.209,1.643-0.779,1.762c-0.943,0.199-1.311-0.295-1.4-1.14c-0.021-0.188-0.066-0.374-0.102-0.562
			c-0.902,0.184-1.475,1.686-1.238,2.959c0.873,0.116,1.705,0.309,2.539,0.321c1.242,0.017,2.572-1.108,2.867-2.289
			c0.375-1.507-0.129-2.801-1.316-3.615c-0.527-0.363-1.133-0.793-1.379-1.338c-0.182-0.404,0.158-1.044,0.266-1.579
			c0.486,0.16,1.379,0.297,1.393,0.487c0.076,1.243,0.848,0.757,1.516,0.769C81.264,43.182,81.328,42.279,81.406,41.225z
			 M22.29,45.607c0.241,0.582,0.476,1.047,0.629,1.535c0.401,1.277,0.827,2.551,1.122,3.854c0.137,0.603,0.125,1.308-0.058,1.896
			c-0.216,0.702-0.005,1.188,0.666,1.43c1.173,0.425,2.099-0.331,3.129-0.54c0.172-0.035,0.351-0.632,0.307-0.938
			c-0.032-0.226-0.413-0.408-0.652-0.596c-0.308-0.242-0.807-0.41-0.911-0.714c-0.554-1.646-1.061-3.311-1.47-4.996
			c-0.105-0.433,0.046-1.221,0.348-1.4c0.657-0.394,0.632-0.869,0.339-1.299c-0.201-0.294-0.746-0.563-1.089-0.517
			c-1.207,0.175-2.393,0.491-3.602,0.757C21.562,45.552,21.562,45.552,22.29,45.607z M22.63,38.107
			c0.73-2.242,1.377-4.216,3.406-5.132c-1.538-1.375-2.98-2.664-4.511-4.031c-0.583,2.237-1.804,3.849-3.528,5.311
			C20.269,34.728,21.307,36.424,22.63,38.107z M83.902,45.629c0.023-0.34,0.027-0.632,0.066-0.919
			c0.092-0.699,0.553-0.966,1.186-0.831c0.629,0.135,0.588,0.612,0.484,1.147c-0.277,1.412-0.441,2.851-0.766,4.25
			c-0.164,0.712-0.213,1.73-1.215,1.779c-0.635,0.029-0.652,0.411-0.648,0.718c0.002,0.212,0.338,0.547,0.58,0.607
			c0.566,0.141,1.164,0.172,1.75,0.204c0.293,0.015,0.797,0.01,0.846-0.122c0.137-0.36,0.125-0.796,0.096-1.195
			c-0.045-0.59-0.268-1.186-0.213-1.756c0.074-0.77,0.348-1.519,0.529-2.276c0.199-0.816,0.307-1.669,0.623-2.434
			c0.145-0.345,0.707-0.515,1.082-0.764c0.059,0.332,0.146,0.661,0.166,0.996c0.02,0.341-0.031,0.687-0.051,1.03
			c0.109,0.007,0.217,0.012,0.326,0.018c0.146-1.027,0.322-2.051,0.406-3.084c0.018-0.197-0.299-0.583-0.504-0.614
			c-1.727-0.269-3.461-0.475-5.242-0.706c-0.188,1.175-0.35,2.136-0.496,3.101C82.809,45.452,83.066,45.787,83.902,45.629z
			 M31.954,67.823c0.129-1.06,0.08-2.017,0.391-2.835c0.323-0.847,0.994-1.562,1.524-2.352c-2.199-0.193-3.843-1.51-5.367-3.365
			c-0.018,1.861-0.216,3.36-1.498,4.59C29.015,64.809,30.801,65.875,31.954,67.823z M67.852,61.258
			c1.76,0.958,2.559,2.329,2.5,4.399c1.09-1.983,2.225-3.438,3.799-4.075c-0.676-1.144-1.377-2.329-2.037-3.449
			C71.037,59.24,70.176,61.049,67.852,61.258z M96.643,53.799c1.846-1.374,2.988-5.521,2.117-6.208
			c-0.828,0.513-1.555,1.001-2.318,1.416c-0.502,0.271-0.438,0.563-0.205,0.958c0.502,0.848,0.764,1.727,0.42,2.723
			C96.561,52.972,96.643,53.317,96.643,53.799z"/>
		<path fill-rule="evenodd" clip-rule="evenodd" fill="#1F305F" d="M65.316,40.829c0.039,0.703,0.068,1.229-0.67,1.513
			c-0.268,0.102-0.463,0.537-0.578,0.86c-0.818,2.271-1.6,4.555-2.4,6.83c-0.18,0.516-0.107,1.199-0.986,1.212
			c-0.883,0.013-1.01-0.531-1.24-1.205c-0.361-1.058-0.43-2.318-1.727-3.09c-0.475,1.476-0.916,2.851-1.373,4.275
			c-0.189,0.045-0.453,0.075-0.693,0.167c-0.91,0.353-1.291-0.068-1.574-0.901c-0.802-2.37-1.66-4.719-2.533-7.063
			c-0.099-0.268-0.395-0.595-0.653-0.651c-1.198-0.26-0.941-1.104-0.896-2.045c1.523,0,3.002,0,4.561,0
			c0.121,0.544,0.43,1.107-0.293,1.733c-0.268,0.232-0.154,1.088,0.006,1.589c0.33,1.026,0.807,2.006,1.461,3.062
			c0.393-1.347,0.816-2.687,1.158-4.046c0.057-0.24-0.246-0.562-0.355-0.855c-0.143-0.389-0.381-0.803-0.334-1.175
			c0.025-0.187,0.588-0.406,0.92-0.429c0.881-0.06,1.77-0.021,2.729-0.021c0.006,0.702,0.303,1.306-0.443,1.856
			c-0.469,0.347-0.6,1.012-0.35,1.677c0.406,1.089,0.721,2.215,1.148,3.294c0.111,0.281,0.5,0.451,0.764,0.671
			c0.174-0.229,0.426-0.435,0.51-0.693c0.418-1.301,0.855-2.603,1.141-3.937c0.098-0.452-0.143-1.043-0.385-1.486
			c-0.305-0.556-0.17-1.092,0.467-1.13C63.537,40.792,64.383,40.829,65.316,40.829z"/>
		<path fill-rule="evenodd" clip-rule="evenodd" fill="#1F305F" d="M37.35,51.197c1.079-0.154,1.285-0.72,1.012-1.781
			c-0.35-1.35-0.47-2.76-0.649-4.148c-0.126-0.99-0.755-1.68-1.728-1.757c-0.081-0.298-0.247-0.616-0.222-0.919
			c0.016-0.214,0.265-0.558,0.452-0.59c1.766-0.3,3.541-0.543,5.312-0.804c1.686-0.248,2.994,0.634,4.103,1.65
			c1.962,1.802,2.491,5.062,0.977,7.267c-0.822,1.198-2.017,1.852-3.489,1.987c-1.4,0.13-2.806,0.268-4.198,0.464
			C37.561,52.756,37.492,52.729,37.35,51.197z M45.046,47.021c-0.392-0.957-0.83-2.063-1.308-3.151
			c-0.076-0.176-0.314-0.326-0.512-0.395c-0.309-0.107-0.645-0.164-0.973-0.19c-0.592-0.048-1.214-0.164-1.766-0.025
			c-0.186,0.047-0.319,0.79-0.276,1.192c0.185,1.727,0.435,3.444,0.688,5.161c0.033,0.237,0.168,0.542,0.354,0.659
			c0.531,0.334,2.875-0.356,3.091-0.914C44.598,48.694,44.759,47.994,45.046,47.021z"/>
		<path fill-rule="evenodd" clip-rule="evenodd" fill="#1F305F" d="M18.946,50.954c0-1.619,0.017-2.964-0.021-4.307
			c-0.004-0.176-0.309-0.33-0.448-0.515c-0.267-0.352-0.594-0.691-0.727-1.093c-0.043-0.132,0.399-0.551,0.683-0.639
			c0.605-0.189,1.251-0.245,2.133-0.401c-0.08,0.832-0.228,1.472-0.183,2.096c0.115,1.69,0.32,3.373,0.476,5.061
			c0.085,0.947,0.236,1.903,0.171,2.842c-0.027,0.413-0.448,0.927-0.832,1.138c-0.219,0.119-0.842-0.187-1.074-0.471
			c-0.602-0.741-1.085-1.579-1.624-2.372c-0.139-0.203-0.307-0.384-0.604-0.754c-0.533,1.597,0.62,2.81,0.373,4.195
			c-0.5,0.28-0.918,0.379-1.312-0.293c-1.225-2.086-2.498-4.143-3.751-6.211c-0.184-0.303-0.336-0.628-0.542-0.916
			c-1.174-1.644-0.736-2.252,0.905-2.329c0.282,0.54,0.989,0.982,0.4,1.769c-0.034,0.046-0.042,0.143-0.018,0.192
			c0.665,1.266,1.335,2.527,2.004,3.79c0.088-0.029,0.176-0.058,0.262-0.086c0.035-0.202,0.124-0.412,0.097-0.605
			c-0.15-1.092-0.306-2.186-0.513-3.267c-0.048-0.244-0.334-0.434-0.468-0.671c-0.212-0.376-0.492-0.761-0.53-1.163
			c-0.018-0.18,0.461-0.521,0.758-0.586c0.52-0.114,1.284-0.296,1.559-0.037c0.287,0.272,0.117,1.025,0.161,1.567
			c0.021,0.249,0.009,0.531,0.126,0.731c0.537,0.921,1.094,1.832,1.692,2.715C18.268,50.582,18.608,50.713,18.946,50.954z"/>
		<path fill-rule="evenodd" clip-rule="evenodd" fill="#1F305F" d="M71.893,45.449c-0.029,0.381-0.055,0.727-0.09,1.205
			c-0.711,0-1.396,0-1.979,0c-0.176,1.135-0.332,2.139-0.529,3.421c1.047,0,1.951,0.025,2.852-0.025
			c0.148-0.009,0.348-0.344,0.398-0.558c0.219-0.918,0.203-0.923,1.475-0.904c-0.178,0.906-0.318,1.787-0.551,2.643
			c-0.039,0.143-0.488,0.259-0.74,0.243c-1.734-0.104-3.469-0.255-5.207-0.373c-0.455-0.032-0.916-0.006-1.441-0.006
			c-0.094-0.61-0.254-1.146,0.562-1.401c0.188-0.059,0.365-0.444,0.385-0.691c0.148-2.033,0.27-4.068,0.361-6.105
			c0.01-0.238-0.172-0.65-0.352-0.707c-0.775-0.249-0.646-0.773-0.467-1.555c0.689,0.068,1.41,0.143,2.129,0.209
			c0.256,0.024,0.512,0.045,0.77,0.045c1.576,0.003,3.154-0.023,4.729,0.025c0.188,0.006,0.498,0.395,0.518,0.625
			c0.064,0.783,0.023,1.574,0.023,2.396c-0.898,0.165-1.51,0.08-1.398-1.007c0.014-0.121-0.039-0.356-0.084-0.362
			c-1.01-0.135-2.029-0.367-3.033-0.317c-0.766,0.038-0.58,0.785-0.537,1.344c0.033,0.456,0.004,0.917,0.004,1.539
			c0.268,0.057,0.627,0.146,0.99,0.201C71.064,45.389,71.451,45.409,71.893,45.449z"/>
		<path fill-rule="evenodd" clip-rule="evenodd" fill="#1F305F" d="M36.892,52.662c-2.431,0.264-4.564,0.473-6.692,0.737
			c-0.692,0.086-1.209-0.078-1.363-0.755c-0.057-0.246,0.249-0.579,0.4-0.866c0.157-0.296,0.514-0.622,0.464-0.869
			c-0.399-1.926-0.85-3.843-1.361-5.742c-0.067-0.25-0.574-0.54-0.874-0.538c-0.574,0.007-0.854-0.258-0.815-0.726
			c0.031-0.346,0.274-0.911,0.512-0.963c1.201-0.261,2.427-0.461,3.654-0.528c0.712-0.04,1.151,0.778,0.679,1.418
			c-0.773,1.046-0.436,2.07-0.243,3.107c0.189,1.023,0.5,2.024,0.746,3.039c0.191,0.792,0.632,1.309,1.494,1.242
			c0.896-0.067,1.121-0.66,1.018-1.466c-0.043-0.355-0.111-0.738-0.026-1.072c0.065-0.263,0.316-0.6,0.55-0.663
			c0.2-0.055,0.658,0.183,0.716,0.378C36.159,49.756,36.494,51.139,36.892,52.662z"/>
		<path fill-rule="evenodd" clip-rule="evenodd" fill="#E52F39" d="M79.572,30.731c-2.791,0.545-3.686,2.593-4.791,4.824
			c-1.029-2.608-2.463-4.514-5.359-5.36c2.799-1.005,4.754-2.685,4.955-5.987C75.01,27.241,77.129,29.137,79.572,30.731z"/>
		<path fill-rule="evenodd" clip-rule="evenodd" fill="#1F305F" d="M81.309,41.178c-0.074,1.054-0.137,1.954-0.207,2.918
			c-0.668-0.012-1.441,0.476-1.518-0.768c-0.01-0.19-0.906-0.326-1.393-0.487c-0.107,0.534-0.447,1.174-0.264,1.578
			c0.246,0.546,0.85,0.975,1.379,1.338c1.186,0.814,1.693,2.108,1.316,3.616c-0.297,1.181-1.625,2.305-2.869,2.287
			c-0.834-0.01-1.664-0.204-2.537-0.321c-0.238-1.271,0.336-2.774,1.238-2.957c0.033,0.188,0.08,0.372,0.1,0.56
			c0.092,0.847,0.459,1.34,1.4,1.142c0.572-0.12,1.066-1.06,0.781-1.762c-0.209-0.519-0.564-1.06-1.006-1.39
			c-1.32-0.985-1.682-2.237-1.416-3.803c0.24-1.408,1.348-2.11,2.766-1.833C79.74,41.426,80.465,41.233,81.309,41.178z"/>
		<path fill-rule="evenodd" clip-rule="evenodd" fill="#1F305F" d="M22.196,45.561c-0.729-0.058-0.729-0.058-1.242-1.529
			c1.207-0.266,2.394-0.583,3.601-0.756c0.344-0.051,0.888,0.221,1.089,0.516c0.293,0.429,0.318,0.904-0.339,1.298
			c-0.3,0.181-0.453,0.968-0.348,1.401c0.409,1.685,0.917,3.35,1.472,4.994c0.103,0.307,0.604,0.473,0.91,0.715
			c0.238,0.187,0.619,0.371,0.652,0.596c0.043,0.307-0.135,0.903-0.308,0.938c-1.031,0.21-1.955,0.966-3.129,0.541
			c-0.671-0.244-0.881-0.728-0.665-1.433c0.182-0.585,0.193-1.292,0.056-1.895c-0.294-1.302-0.719-2.576-1.12-3.854
			C22.671,46.604,22.438,46.141,22.196,45.561z"/>
		<path fill-rule="evenodd" clip-rule="evenodd" fill="#E52F39" d="M22.536,38.059c-1.323-1.684-2.361-3.379-4.634-3.853
			c1.725-1.461,2.947-3.072,3.528-5.311c1.53,1.368,2.972,2.656,4.512,4.031C23.913,33.844,23.268,35.816,22.536,38.059z"/>
		<path fill-rule="evenodd" clip-rule="evenodd" fill="#1F305F" d="M83.809,45.58c-0.838,0.159-1.094-0.177-0.994-0.85
			c0.145-0.965,0.307-1.927,0.496-3.102c1.779,0.231,3.516,0.438,5.242,0.706c0.203,0.032,0.521,0.417,0.504,0.615
			c-0.086,1.032-0.262,2.057-0.406,3.083c-0.109-0.005-0.217-0.011-0.326-0.018c0.02-0.344,0.068-0.689,0.051-1.029
			c-0.02-0.335-0.109-0.665-0.168-0.997c-0.373,0.25-0.936,0.419-1.08,0.764c-0.318,0.765-0.426,1.617-0.623,2.433
			c-0.182,0.759-0.453,1.509-0.529,2.276c-0.055,0.572,0.166,1.167,0.211,1.756c0.031,0.401,0.041,0.836-0.096,1.198
			c-0.047,0.131-0.553,0.135-0.846,0.119c-0.584-0.03-1.184-0.062-1.748-0.203c-0.24-0.061-0.58-0.395-0.582-0.607
			c-0.002-0.306,0.016-0.688,0.65-0.719c1.002-0.048,1.049-1.066,1.213-1.777c0.324-1.4,0.49-2.838,0.766-4.25
			c0.105-0.535,0.145-1.014-0.484-1.147c-0.633-0.137-1.094,0.131-1.186,0.83C83.836,44.949,83.83,45.24,83.809,45.58z"/>
		<path fill-rule="evenodd" clip-rule="evenodd" fill="#E52F39" d="M31.86,67.775c-1.155-1.949-2.94-3.014-4.951-3.963
			c1.282-1.23,1.481-2.729,1.5-4.59c1.522,1.856,3.166,3.172,5.364,3.365c-0.529,0.789-1.2,1.505-1.522,2.354
			C31.939,65.759,31.988,66.715,31.86,67.775z"/>
		<path fill-rule="evenodd" clip-rule="evenodd" fill="#E52F39" d="M67.756,61.21c2.326-0.208,3.189-2.018,4.264-3.125
			c0.662,1.12,1.361,2.303,2.037,3.449c-1.574,0.638-2.711,2.092-3.799,4.075C70.312,63.538,69.516,62.167,67.756,61.21z"/>
		<path fill-rule="evenodd" clip-rule="evenodd" fill="#F7DB48" d="M45.046,47.021c-0.287,0.974-0.448,1.674-0.702,2.337
			c-0.216,0.558-2.56,1.248-3.091,0.914c-0.186-0.117-0.32-0.422-0.354-0.659c-0.253-1.717-0.503-3.435-0.688-5.161
			c-0.043-0.402,0.091-1.146,0.276-1.192c0.552-0.139,1.174-0.022,1.766,0.025c0.328,0.026,0.664,0.083,0.973,0.19
			c0.197,0.068,0.436,0.219,0.512,0.395C44.216,44.957,44.654,46.063,45.046,47.021z"/>
	</g>
	<path fill-rule="evenodd" clip-rule="evenodd" fill="#1F305F" d="M52.979,30.381c-2.619,1.186-3.786,3.746-4.624,6.091
		c-1.324-2.473-2.971-4.503-5.943-5.009c2.663-1.32,4.411-3.216,4.229-6.52C47.617,27.883,50.369,29.078,52.979,30.381z"/>
	<path fill-rule="evenodd" clip-rule="evenodd" fill="#1F305F" d="M54.08,60.762c-1.903,0.762-2.815,2.549-3.486,4.191
		c-0.866-1.802-1.974-2.996-4.076-3.45c1.71-1.251,2.549-2.28,3.22-4.813C51.038,58.779,52.261,59.752,54.08,60.762z"/>
	<g>
		<path fill-rule="evenodd" clip-rule="evenodd" fill="#1F305F" d="M90.936,32.03c2.074-0.051,3.441-1.975,3.49-3.999
			c0.305,2.125,1.166,4.605,3.242,5.518c-1.873,0.809-2.178,3.087-2.33,5.011c-0.506-1.722-0.859-3.34-2.074-4.707
			c-0.762-0.811-1.672-1.114-2.48-1.671c0.051-0.051,0.152-0.051,0.203-0.051"/>
	</g>
	<g>
		<path fill-rule="evenodd" clip-rule="evenodd" fill="#1F305F" d="M94.779,48.162c2.947,0.559,4.559-0.033,5.439-3.1
			c-0.564,3.604-1.523,7.076-4.07,9.767c-0.014-1.5,0.689-2.684,0.35-4.365c-0.229-1.001-1.045-1.754-1.902-2.276"/>
	</g>
	<g>
		<path fill-rule="evenodd" clip-rule="evenodd" fill="#1F305F" d="M2.933,39.804c0.616-1.1,1.055-2.717,1.265-3.834
			c0.271-1.002,0.249-2.056,0.284-3.112c0.386,1.574,0.472,2.803,1.898,3.768c0.714,0.513,1.357,0.499,2.178,0.48
			c-3.444,0.603-1.535,4.896-2.371,6.907C5.335,42.506,4.734,40.26,2.933,39.804"/>
		<g>
			<path fill="#1E315E" d="M3.472,40.119c1.143-2.294,1.566-4.722,1.634-7.262c-0.409,0.055-0.818,0.111-1.228,0.166
				c0.621,2.665,1.629,4.732,4.679,4.707c-0.055-0.409-0.111-0.818-0.166-1.228c-3.76,0.938-1.929,4.672-2.808,7.344
				c0.381-0.05,0.761-0.1,1.142-0.149c-0.957-1.809-1.57-3.732-3.627-4.496c-0.757-0.281-1.081,0.928-0.332,1.205
				c1.627,0.604,2.144,2.529,2.88,3.922c0.266,0.504,0.982,0.338,1.142-0.149c0.674-2.048-0.834-5.779,1.935-6.471
				c0.689-0.172,0.537-1.233-0.166-1.228c-2.563,0.021-3.009-1.795-3.474-3.789c-0.164-0.705-1.209-0.523-1.228,0.166
				c-0.062,2.305-0.427,4.551-1.463,6.631C2.035,40.207,3.113,40.841,3.472,40.119L3.472,40.119z"/>
		</g>
	</g>
	<g>
		<path fill-rule="evenodd" clip-rule="evenodd" fill="#1F305F" d="M2.428,49.152c1.14,1.784,2.533,4.064,4.424,4.348
			c-0.259,2.449-0.195,4.024,0.19,6.387c-1.621-1.09-2.425-4.054-3.151-5.655C3.306,53.045,2.693,50.394,2.428,49.152"/>
		<g>
			<path fill="#1E305F" d="M1.888,49.468c1.205,1.888,2.479,4.06,4.797,4.634c-0.153-0.2-0.306-0.401-0.459-0.602
				c-0.21,2.224-0.125,4.348,0.213,6.553c0.348-0.203,0.696-0.405,1.044-0.607c-1.597-1.272-2.096-3.303-2.87-5.103
				c-0.742-1.724-1.185-3.526-1.583-5.356c-0.171-0.787-1.376-0.453-1.205,0.332c0.451,2.072,1.048,4.016,1.836,5.979
				c0.726,1.811,1.361,3.775,2.939,5.031c0.506,0.404,1.142,0.029,1.044-0.607c-0.322-2.1-0.368-4.109-0.168-6.221
				c0.025-0.269-0.208-0.541-0.459-0.604c-1.974-0.488-3.032-2.465-4.05-4.06C2.535,48.16,1.453,48.786,1.888,49.468L1.888,49.468z"
				/>
		</g>
	</g>
	<g>
		<path fill-rule="evenodd" clip-rule="evenodd" fill="#1F305F" d="M14.883,67.316c0-2.086-0.062-3.933-1.286-5.721
			c0.551,1.014,1.716,2.146,2.572,2.86c1.041,0.895,2.021,0.655,3.244,0.895c-1.835,0.833-0.979,4.35-0.123,5.66
			c-1.04-2.322-2.069-2.814-4.579-2.814"/>
		<g>
			<path fill="#1E305F" d="M15.508,67.316c-0.01-2.174-0.204-4.152-1.372-6.035c-0.423-0.684-1.503-0.059-1.079,0.631
				c0.712,1.156,1.644,2.102,2.669,2.986c1.041,0.896,2.236,0.859,3.521,1.055c-0.05-0.381-0.1-0.762-0.149-1.143
				c-2.221,1.322-1.436,4.676-0.348,6.516c0.416,0.703,1.421,0.088,1.08-0.631c-1.102-2.317-2.598-3.085-5.119-3.124
				c-0.807-0.013-0.805,1.237,0,1.25c2.071,0.032,3.143,0.615,4.039,2.505c0.36-0.21,0.72-0.421,1.08-0.631
				c-0.705-1.192-1.637-3.891-0.102-4.805c0.424-0.253,0.412-1.057-0.149-1.143c-0.892-0.137-1.821-0.121-2.651-0.514
				c-1.084-0.511-2.192-1.98-2.792-2.953c-0.36,0.21-0.719,0.42-1.079,0.631c1.056,1.703,1.191,3.446,1.201,5.404
				C14.262,68.122,15.512,68.123,15.508,67.316L15.508,67.316z"/>
		</g>
	</g>
	<g>
		<path fill-rule="evenodd" clip-rule="evenodd" fill="#1F305F" d="M83.4,62.818c2.807,0.41,4.734-2.571,5.785-4.733
			c0.119,1.812-0.758,4.441,0.352,6.138c-1.168,0.059-1.576,0.232-2.512,1.109c-0.76,0.818-1.812,1.695-2.047,2.864
			c0.293-2.046,1.578-5.261-1.637-5.378"/>
	</g>
	<g>
		<path fill="#E52F39" d="M37.641,96.422c1.872,0.152,3.695-0.201,5.568-0.455c1.62-0.201,3.239-0.201,4.859-0.252
			c2.986-0.102,5.922-0.102,8.908,0.15c2.938,0.254,5.82,0.355,8.707,0.507c1.113,0.102,3.088-0.151,4.049,0.354
			c-0.707,1.62-2.176,3.443-3.289,4.86c-1.369,1.67-2.207,3.646-3.42,5.416c-0.658,1.013-1.287,2.125-1.795,3.189
			c-0.404,0.86-1.164,1.771-1.52,2.631c-0.354,0.861-0.91,1.165-1.314,1.976c-0.709-1.696-1.16-3.002-2.072-4.319
			c-1.064-1.467-1.104-2.907-2.787-3.655c-2.277-1.012-5.306-1.82-7.585-1.264c-0.96,0.203-1.273-0.38-1.98-1.14
			c-1.015-1.113-2.078-2.228-3.039-3.442c-1.113-1.468-2.277-2.985-3.24-4.504"/>
		<g>
			<path fill="#E52F39" d="M37.641,97.672c5.261,0.018,10.477-0.815,15.771-0.748c2.937,0.038,5.874,0.373,8.808,0.527
				c2.266,0.12,4.979-0.155,7.182,0.479c-0.248-0.612-0.498-1.224-0.746-1.836c-1.66,3.149-4.074,5.82-5.855,8.918
				c-1.764,3.066-3.457,6.251-5.482,9.154c0.762,0.1,1.521,0.199,2.283,0.299c-1.154-2.812-2.621-7.613-5.732-8.848
				c-2.156-0.856-4.169-1.351-6.472-1.488c-4.062-0.241-6.583-5.252-8.626-8.287c-0.895-1.329-3.062-0.08-2.158,1.262
				c1.382,2.054,5.25,8.938,7.922,9.452c2.43,0.467,4.762,0.154,7.225,0.898c2.877,0.869,4.434,5.243,5.432,7.675
				c0.418,1.017,1.627,1.242,2.285,0.299c2.039-2.921,3.588-6.14,5.482-9.154c1.883-2.997,4.205-5.786,5.855-8.918
				c0.377-0.717,0.053-1.605-0.748-1.836c-4.027-1.161-8.916-0.583-13.088-0.905c-6.538-0.505-12.857,0.578-19.336,0.557
				C36.028,95.167,36.029,97.667,37.641,97.672L37.641,97.672z"/>
		</g>
	</g>
</g>
</svg>
