<?xml version="1.0" encoding="utf-8"?>
<!-- Generator: Adobe Illustrator 16.0.4, SVG Export Plug-In . SVG Version: 6.00 Build 0)  -->
<!DOCTYPE svg PUBLIC "-//W3C//DTD SVG 1.1//EN" "http://www.w3.org/Graphics/SVG/1.1/DTD/svg11.dtd">
<svg version="1.1" id="Layer_1" xmlns="http://www.w3.org/2000/svg" xmlns:xlink="http://www.w3.org/1999/xlink" x="0px" y="0px"
	 width="73.572px" height="55.188px" viewBox="0 0 73.572 55.188" enable-background="new 0 0 73.572 55.188" xml:space="preserve">
<g>
	<path fill-rule="evenodd" clip-rule="evenodd" fill="#FFFFFF" d="M73.572,33.063c-0.834,1.414-1.501,2.972-2.556,4.193
		c-0.87,1.01-2.202,1.621-3.528,2.549c0,3.168,0.003,6.612-0.002,10.054c-0.004,3.521-1.79,5.327-5.27,5.327
		c-19.009,0.003-38.021,0.003-57.031,0c-3.443,0-5.183-1.752-5.183-5.219C0,37.087,0,24.204,0.002,11.324
		c0-3.4,1.82-5.217,5.224-5.228c1.277-0.004,2.559,0,3.973,0c0-1.433-0.009-2.715,0.001-3.995c0.015-1.607,0.452-2.076,2.013-2.081
		c3.782-0.01,7.564-0.012,11.348,0c1.469,0.006,1.951,0.478,2.001,1.989c0.042,1.286,0.009,2.577,0.009,4.082
		c0.986,0,1.884,0.063,2.764-0.032c0.322-0.037,0.728-0.395,0.88-0.71C29.98,1.69,32.866-0.022,36.932,0
		C46.03,0.052,55.13,0.016,64.226,0.018c4.732,0,7.594,2.073,9.094,6.565c0.043,0.123,0.166,0.219,0.252,0.326
		C73.572,15.628,73.572,24.345,73.572,33.063z M64.378,39.912c-0.744,0-1.31,0-1.876,0c-8.619,0-17.239,0.013-25.861-0.005
		c-5.296-0.01-9.039-3.757-9.047-9.037c-0.01-6.706-0.003-13.41-0.003-20.115c0-0.502,0-1.003,0-1.552
		c-7.461,0-14.692-0.002-21.922,0c-2.23,0.001-2.561,0.333-2.561,2.581c-0.002,12.596-0.002,25.189,0,37.787
		c0,2.286,0.23,2.509,2.58,2.509c18.679,0,37.356,0,56.035,0c0.287,0,0.572-0.005,0.862-0.002c1.186,0.011,1.778-0.62,1.784-1.765
		C64.392,46.919,64.378,43.524,64.378,39.912z M50.541,36.806c4.599,0,9.195,0.008,13.791-0.005c3.801-0.01,6.107-2.269,6.119-6.049
		c0.023-7.231,0.024-14.462,0-21.693c-0.012-3.666-2.255-5.919-5.903-5.927c-9.291-0.021-18.581-0.02-27.871,0
		c-3.745,0.007-5.962,2.238-5.972,6.001c-0.018,7.182-0.016,14.364,0,21.549c0.01,3.871,2.289,6.112,6.19,6.121
		C41.444,36.812,45.992,36.806,50.541,36.806z M21.343,3.224c-3.075,0-6.005,0-8.948,0c0,0.984,0,1.867,0,2.773
		c3.024,0,5.958,0,8.948,0C21.343,5.047,21.343,4.196,21.343,3.224z"/>
	<path fill-rule="evenodd" clip-rule="evenodd" fill="#FFFFFF" d="M9.199,22.961c0-2.921,0.031-5.841-0.014-8.762
		c-0.021-1.356,0.635-1.954,1.896-1.961c3.83-0.02,7.66-0.007,11.49-0.009c1.376-0.002,1.998,0.717,1.998,2.057
		c-0.002,5.793,0.018,11.586-0.009,17.379c-0.008,1.589-0.509,2.093-2.076,2.107c-3.781,0.034-7.565,0.035-11.347-0.004
		c-1.483-0.018-1.931-0.543-1.938-2.047C9.19,28.802,9.199,25.881,9.199,22.961z M21.268,30.571c0-5.127,0-10.105,0-15.084
		c-3.028,0-5.923,0-8.845,0c0,5.077,0,10.059,0,15.084C15.406,30.571,18.267,30.571,21.268,30.571z"/>
	<path fill-rule="evenodd" clip-rule="evenodd" fill="#FFFFFF" d="M10.636,41.345c0.014-3.375,2.723-6.068,6.107-6.08
		c3.41-0.01,6.235,2.812,6.193,6.187c-0.039,3.339-2.81,6.078-6.154,6.085C13.342,47.542,10.621,44.802,10.636,41.345z
		 M16.761,44.402c1.662,0,3.039-1.332,3.066-2.966c0.026-1.678-1.408-3.07-3.133-3.038c-1.692,0.028-2.949,1.327-2.936,3.032
		C13.774,43.129,15.062,44.403,16.761,44.402z"/>
	<path fill-rule="evenodd" clip-rule="evenodd" fill="#FFFFFF" d="M52.404,5.355c6.844,0.155,12.395,5.856,12.172,12.503
		c-0.233,7.027-5.861,12.22-13.043,12.031c-6.42-0.166-11.694-5.92-11.564-12.614C40.097,10.681,45.809,5.204,52.404,5.355z
		 M52.31,26.774c5.027-0.016,9.133-4.108,9.14-9.115c0.007-5.062-4.172-9.2-9.251-9.161c-5.051,0.041-9.106,4.104-9.106,9.126
		C43.094,22.733,47.18,26.788,52.31,26.774z"/>
</g>
</svg>
