<?xml version="1.0" encoding="utf-8"?>
<!-- Generator: Adobe Illustrator 16.0.4, SVG Export Plug-In . SVG Version: 6.00 Build 0)  -->
<!DOCTYPE svg PUBLIC "-//W3C//DTD SVG 1.1//EN" "http://www.w3.org/Graphics/SVG/1.1/DTD/svg11.dtd">
<svg version="1.1" id="Layer_1" xmlns="http://www.w3.org/2000/svg" xmlns:xlink="http://www.w3.org/1999/xlink" x="0px" y="0px"
	 width="154.891px" height="116.189px" viewBox="0 0 154.891 116.189" enable-background="new 0 0 154.891 116.189"
	 xml:space="preserve">
<g>
	<path fill-rule="evenodd" clip-rule="evenodd" fill="#4866B0" d="M154.891,69.608c-1.757,2.976-3.161,6.257-5.382,8.831
		c-1.832,2.123-4.633,3.41-7.428,5.363c0,6.67,0.007,13.918-0.003,21.166c-0.007,7.413-3.769,11.218-11.093,11.218
		c-40.023,0.003-80.047,0.003-120.07,0c-7.248-0.001-10.911-3.691-10.911-10.99c-0.005-27.119-0.005-54.238,0-81.356
		c0.001-7.155,3.831-10.981,10.997-11.004c2.693-0.009,5.386-0.001,8.363-0.001c0-3.016-0.018-5.713,0.004-8.411
		c0.027-3.385,0.953-4.37,4.236-4.38c7.963-0.025,15.928-0.025,23.893,0c3.092,0.011,4.106,1.003,4.211,4.185
		c0.088,2.711,0.018,5.429,0.018,8.597c2.079,0,3.969,0.134,5.819-0.071c0.678-0.076,1.532-0.83,1.852-1.494
		C63.116,3.555,69.194-0.047,77.753,0c19.154,0.108,38.311,0.031,57.465,0.035c9.959,0.003,15.986,4.367,19.143,13.824
		c0.088,0.259,0.35,0.458,0.53,0.686C154.891,32.9,154.891,51.253,154.891,69.608z M135.536,84.027c-1.564,0-2.756,0-3.948,0
		c-18.149,0-36.298,0.024-54.446-0.009c-11.154-0.021-19.031-7.911-19.047-19.029c-0.021-14.115-0.006-28.231-0.006-42.347
		c0-1.056,0-2.11,0-3.267c-15.709,0-30.932-0.004-46.152,0c-4.697,0.002-5.392,0.698-5.392,5.432
		c-0.005,26.518-0.005,53.035,0,79.553c0,4.813,0.487,5.286,5.434,5.286c39.322,0.001,78.645,0.001,117.968,0
		c0.604,0,1.209-0.01,1.814-0.005c2.499,0.021,3.746-1.305,3.76-3.716C135.563,98.779,135.536,91.632,135.536,84.027z
		 M106.405,77.485c9.678,0,19.356,0.021,29.034-0.007c8.001-0.021,12.856-4.779,12.883-12.736c0.048-15.224,0.05-30.446-0.001-45.67
		c-0.026-7.718-4.75-12.462-12.432-12.479c-19.558-0.043-39.116-0.04-58.674-0.002c-7.889,0.016-12.552,4.713-12.572,12.635
		c-0.04,15.122-0.035,30.244-0.002,45.367c0.02,8.151,4.818,12.87,13.031,12.888C87.249,77.5,96.827,77.485,106.405,77.485z
		 M44.933,6.788c-6.473,0-12.643,0-18.837,0c0,2.07,0,3.928,0,5.836c6.367,0,12.541,0,18.837,0
		C44.933,10.625,44.933,8.836,44.933,6.788z"/>
	<path fill-rule="evenodd" clip-rule="evenodd" fill="#4866B0" d="M19.364,48.338c0-6.147,0.066-12.298-0.028-18.445
		c-0.045-2.854,1.339-4.114,3.993-4.128c8.063-0.043,16.127-0.017,24.191-0.021c2.896-0.002,4.209,1.513,4.207,4.331
		c-0.002,12.196,0.037,24.395-0.021,36.591c-0.016,3.343-1.07,4.405-4.367,4.436c-7.963,0.071-15.928,0.075-23.889-0.01
		c-3.125-0.034-4.066-1.141-4.078-4.307C19.347,60.637,19.364,54.488,19.364,48.338z M44.775,64.361c0-10.794,0-21.272,0-31.757
		c-6.376,0-12.468,0-18.62,0c0,10.688,0,21.179,0,31.757C32.433,64.361,38.457,64.361,44.775,64.361z"/>
	<path fill-rule="evenodd" clip-rule="evenodd" fill="#4866B0" d="M22.392,87.043c0.031-7.106,5.731-12.778,12.861-12.801
		c7.174-0.023,13.122,5.919,13.037,13.023c-0.083,7.03-5.916,12.798-12.957,12.811C28.088,100.09,22.36,94.322,22.392,87.043z
		 M35.29,93.48c3.498-0.001,6.394-2.804,6.451-6.242c0.058-3.531-2.963-6.464-6.592-6.4c-3.568,0.062-6.213,2.795-6.183,6.39
		C28.998,90.798,31.712,93.482,35.29,93.48z"/>
	<path fill-rule="evenodd" clip-rule="evenodd" fill="#4866B0" d="M110.325,11.272c14.41,0.328,26.095,12.333,25.627,26.326
		c-0.494,14.793-12.344,25.724-27.46,25.33c-13.517-0.353-24.62-12.465-24.346-26.56C84.416,22.485,96.442,10.957,110.325,11.272z
		 M110.128,56.366c10.586-0.031,19.226-8.647,19.241-19.191c0.015-10.656-8.779-19.364-19.472-19.281
		c-10.637,0.082-19.174,8.638-19.174,19.211C90.726,47.857,99.328,56.397,110.128,56.366z"/>
</g>
</svg>
