<?xml version="1.0" encoding="utf-8"?>
<!-- Generator: Adobe Illustrator 16.0.4, SVG Export Plug-In . SVG Version: 6.00 Build 0)  -->
<!DOCTYPE svg PUBLIC "-//W3C//DTD SVG 1.1//EN" "http://www.w3.org/Graphics/SVG/1.1/DTD/svg11.dtd">
<svg version="1.1" id="Layer_1" xmlns="http://www.w3.org/2000/svg" xmlns:xlink="http://www.w3.org/1999/xlink" x="0px" y="0px"
	 width="51.185px" height="51.265px" viewBox="0 0 51.185 51.265" enable-background="new 0 0 51.185 51.265" xml:space="preserve">
<g>
	<path fill-rule="evenodd" clip-rule="evenodd" fill="#FFFFFF" d="M0.006,18.186c0.064,0,0.109,0,0.154,0
		c3.896,0,7.795,0,11.693,0.007c0.879,0.001,1.756,0.028,2.633,0.048c0.162,0.005,0.324,0.027,0.484,0.051
		c0.166,0.024,0.193,0.065,0.115,0.217c-0.135,0.262-0.273,0.521-0.426,0.77c-0.809,1.327-1.363,2.754-1.662,4.277
		c-0.082,0.424-0.123,0.859-0.125,1.293c-0.008,0.86-0.004,1.722,0.049,2.577c0.066,1.091,0.375,2.129,0.826,3.122
		c0.461,1.02,0.941,2.027,1.615,2.93c1.174,1.574,2.643,2.806,4.387,3.702c1.234,0.634,2.537,1.072,3.908,1.307
		c0.924,0.158,1.857,0.221,2.793,0.136c2.326-0.216,4.482-0.934,6.396-2.283c2.584-1.826,4.279-4.287,5.084-7.35
		c0.314-1.188,0.426-2.4,0.365-3.626c-0.107-2.235-0.756-4.302-1.963-6.19c-0.133-0.207-0.244-0.426-0.352-0.644
		c-0.088-0.181-0.068-0.22,0.125-0.237c0.393-0.035,0.787-0.074,1.18-0.074c4.588-0.014,9.176-0.023,13.764-0.031
		c0.037,0,0.076,0.003,0.129,0.007c0,0.054,0,0.102,0,0.147c-0.027,8.181-0.053,16.359-0.076,24.538c0,0.042,0,0.088-0.014,0.129
		c-0.301,1.042-0.645,2.062-1.18,3.012c-0.732,1.298-1.711,2.374-2.877,3.291c-1.057,0.835-2.268,1.364-3.559,1.722
		c-0.236,0.064-0.473,0.139-0.707,0.204c-0.061,0.018-0.129,0.028-0.193,0.028c-11.361,0.002-22.723,0.002-34.086-0.004
		c-0.148,0-0.299-0.057-0.443-0.099c-0.697-0.196-1.393-0.392-2.053-0.688c-0.793-0.353-1.5-0.838-2.145-1.412
		c-0.764-0.678-1.479-1.402-2.098-2.215c-0.646-0.842-1.072-1.792-1.379-2.803c-0.074-0.25-0.16-0.501-0.23-0.754
		c-0.033-0.123-0.055-0.256-0.055-0.384c-0.031-8.175-0.055-16.35-0.08-24.524C0.006,18.32,0.006,18.26,0.006,18.186z"/>
	<path fill-rule="evenodd" clip-rule="evenodd" fill="#FFFFFF" d="M0,16.95c0-0.063,0-0.111,0-0.159
		c0.027-2.137,0.045-4.275,0.09-6.412c0.018-0.77,0.086-1.542,0.156-2.31c0.047-0.523,0.223-1.017,0.447-1.491
		c0.26-0.557,0.527-1.107,0.801-1.654C1.688,4.537,1.939,4.187,2.23,3.867C2.793,3.244,3.385,2.65,4.025,2.111
		c0.057-0.046,0.111-0.091,0.166-0.132C4.428,1.807,4.51,1.838,4.529,2.129c0.029,0.423,0.057,0.85,0.057,1.273
		c0.014,2.336,0.018,4.67,0.031,7.006C4.623,11,4.66,11.592,4.691,12.184c0.018,0.299,0.082,0.375,0.383,0.389
		c0.393,0.018,0.787,0.004,1.201,0.004c0-0.076,0-0.127,0-0.178C6.314,8.552,6.357,4.707,6.393,0.861
		c0.004-0.13,0.045-0.182,0.164-0.217c0.34-0.108,0.678-0.226,1.021-0.337C7.885,0.207,8.039,0.28,8.08,0.603
		C8.141,1.04,8.182,1.484,8.188,1.926c0.01,2.405,0.008,4.81,0.016,7.217c0,0.886,0.025,1.772,0.047,2.66
		c0.002,0.17,0.031,0.34,0.051,0.509c0.016,0.133,0.086,0.224,0.223,0.238c0.201,0.02,0.398,0.042,0.602,0.046
		c0.164,0.004,0.33-0.02,0.496-0.026c0.088-0.002,0.133-0.03,0.123-0.124c-0.004-0.044,0-0.088,0-0.132
		c0.018-4.043,0.037-8.087,0.059-12.13c0-0.052,0-0.104,0-0.166c0.621,0,1.23,0,1.865,0c0,0.056,0,0.11,0,0.166
		c0.002,3.371,0.002,6.743,0.012,10.114c0,0.622,0.041,1.245,0.07,1.866c0.016,0.322,0.068,0.389,0.389,0.41
		c0.35,0.021,0.699,0.004,1.072,0.004C13.23,8.37,13.252,4.193,13.271,0c0.213,0,0.41,0,0.611,0c2.561,0.006,5.119,0.008,7.68,0.014
		c3.803,0.01,7.604,0.019,11.406,0.029c3.15,0.007,6.303,0.018,9.455,0.02c0.338,0,0.656,0.048,0.979,0.149
		c0.73,0.231,1.461,0.458,2.148,0.81c0.752,0.39,1.418,0.901,2.037,1.479c0.824,0.767,1.617,1.563,2.221,2.521
		c0.6,0.953,1.004,1.992,1.174,3.101c0.098,0.626,0.105,1.269,0.115,1.904c0.037,2.243,0.061,4.486,0.086,6.73
		c0.002,0.06,0,0.119,0,0.193c-0.059,0-0.105,0-0.152,0c-5.408,0-10.818-0.001-16.227,0.002c-0.094,0-0.164-0.028-0.234-0.091
		c-0.863-0.772-1.775-1.472-2.795-2.028c-1.113-0.604-2.277-1.083-3.514-1.378c-0.764-0.182-1.547-0.252-2.33-0.276
		c-0.766-0.022-1.529,0.007-2.289,0.105c-0.746,0.098-1.471,0.306-2.184,0.551c-1.691,0.582-3.182,1.505-4.525,2.671
		c-0.109,0.094-0.199,0.21-0.305,0.309c-0.031,0.028-0.08,0.049-0.121,0.049c-0.805,0.021-1.607,0.052-2.408,0.055
		c-4.641,0.014-9.281,0.021-13.922,0.032C0.123,16.95,0.072,16.95,0,16.95z M37.977,8.35c-0.014,0-0.031,0-0.049,0
		c0,0.636-0.008,1.273,0.002,1.908c0.008,0.457-0.014,0.922,0.068,1.363c0.137,0.761,0.51,1.131,1.135,1.23
		c0.361,0.059,0.732,0.104,1.096,0.111c1.078,0.023,2.152,0.028,3.227,0.027c0.543-0.002,1.09-0.008,1.623-0.126
		c0.51-0.112,0.861-0.396,0.971-0.915c0.061-0.282,0.117-0.57,0.129-0.856c0.047-1.63,0.059-3.256-0.023-4.884
		c-0.023-0.49-0.213-0.907-0.566-1.249c-0.145-0.141-0.312-0.245-0.518-0.267c-0.248-0.029-0.496-0.07-0.744-0.073
		c-1.777-0.015-3.557-0.022-5.334-0.03c-0.051,0-0.109,0.024-0.15,0.059c-0.262,0.228-0.52,0.458-0.77,0.696
		c-0.051,0.048-0.09,0.133-0.09,0.2C37.975,6.479,37.977,7.414,37.977,8.35z"/>
	<path fill-rule="evenodd" clip-rule="evenodd" fill="#FFFFFF" d="M35.721,25.593c-0.006,1.389-0.133,2.609-0.576,3.785
		c-0.881,2.327-2.379,4.12-4.537,5.357c-1.047,0.599-2.168,0.99-3.35,1.192c-0.926,0.156-1.857,0.187-2.793,0.094
		c-1.111-0.111-2.182-0.376-3.205-0.822c-0.781-0.339-1.465-0.825-2.09-1.395c-0.814-0.74-1.6-1.508-2.236-2.408
		c-0.682-0.96-1.102-2.031-1.326-3.177c-0.213-1.082-0.273-2.179-0.186-3.276c0.119-1.486,0.572-2.875,1.332-4.156
		c1.301-2.198,3.154-3.735,5.572-4.569c0.951-0.326,1.926-0.486,2.934-0.489c1.211,0,2.404,0.107,3.564,0.473
		c1.072,0.339,2.045,0.854,2.906,1.577c0.951,0.808,1.832,1.688,2.535,2.731c0.555,0.823,0.896,1.738,1.166,2.688
		C35.67,24.028,35.709,24.881,35.721,25.593z M25.635,33.068c0.281-0.02,0.562-0.028,0.842-0.062
		c0.916-0.117,1.781-0.408,2.584-0.87c1.498-0.864,2.582-2.095,3.24-3.697c0.307-0.747,0.422-1.527,0.445-2.324
		c0.014-0.519-0.006-1.038-0.121-1.544c-0.244-1.084-0.717-2.066-1.369-2.964c-0.426-0.586-0.896-1.133-1.539-1.509
		c-0.713-0.416-1.457-0.77-2.236-1.04c-0.674-0.233-1.373-0.386-2.088-0.341c-0.477,0.029-0.961,0.104-1.428,0.219
		c-2.98,0.723-5.152,3.223-5.479,6.104c-0.129,1.145,0.002,2.258,0.418,3.331c0.717,1.841,1.971,3.175,3.777,3.988
		C23.625,32.782,24.59,33.073,25.635,33.068z"/>
</g>
</svg>
