<?xml version="1.0" encoding="utf-8"?>
<!-- Generator: Adobe Illustrator 16.0.4, SVG Export Plug-In . SVG Version: 6.00 Build 0)  -->
<!DOCTYPE svg PUBLIC "-//W3C//DTD SVG 1.1//EN" "http://www.w3.org/Graphics/SVG/1.1/DTD/svg11.dtd">
<svg version="1.1" id="Layer_1" xmlns="http://www.w3.org/2000/svg" xmlns:xlink="http://www.w3.org/1999/xlink" x="0px" y="0px"
	 width="33.321px" height="29.086px" viewBox="0 0 33.321 29.086" enable-background="new 0 0 33.321 29.086" xml:space="preserve">
<g>
	<g>
		<path fill-rule="evenodd" clip-rule="evenodd" fill="#01539D" d="M28.776,13.803c-1.854-0.146-6.097,1.602-5.528,3.368
			c0.34,1.061,0.562,2.053,0.968,3.095c0.305,0.79,0.659,1.594,0.773,2.42c0.211,1.521-0.729,2.621-2.25,2.881
			c-1.586,0.271-3.106-0.006-4.52-0.686c-3.52-1.697-5.88-4.594-7.84-7.925c1.009,0.489,1.997,1.031,3.033,1.455
			c1.329,0.543,2.682,1.037,4.052,1.463c1.033,0.321,2.079,0.099,3.042-0.338c1.516-0.687,2.129-2.175,1.62-3.9
			c-0.226-0.766-0.546-1.504-0.826-2.254c-1.132-3.021,0.512-5.412,3.729-5.418c2.459-0.006,4.919-0.003,7.377,0
			c0.263,0,0.524,0.021,0.914,0.038c0,1.335-0.161,2.584-0.161,4.231C33.16,15.441,31.32,14.337,28.776,13.803z"/>
		<path fill-rule="evenodd" clip-rule="evenodd" fill="#E23B3F" d="M32.97,0.009c0,2.137,0,4.159,0,6.277
			c-0.304,0.015-0.585,0.039-0.866,0.039c-2.726,0.003-5.45,0-8.175,0.003c-1.636,0.002-3.852,1.772-4.107,3.386
			c-0.087,0.551,0.108,1.155,0.224,1.726c0.296,1.487,0.712,2.958,0.903,4.459c0.181,1.434-0.513,2.132-1.972,2.225
			c-2.652,0.172-4.973-0.82-7.16-2.167c-2.6-1.6-4.72-3.7-6.543-6.164C3.993,8.061,2.45,6.523,1.018,4.904
			C0.69,4.534,0.34,4.185,0,3.826c0.037-0.06,0.075-0.12,0.111-0.18c1.995,0.8,4.044,1.484,5.967,2.426
			c2.751,1.347,5.4,2.901,8.114,4.325c0.936,0.491,1.902,1.029,2.917,1.24c1.51,0.313,2.178-0.349,2.091-1.877
			c-0.035-0.621-0.192-1.279-0.466-1.836c-1.855-3.782-0.076-6.177,3.168-7.485c0.719-0.29,1.551-0.399,2.336-0.412
			C27.119-0.021,30.003,0.009,32.97,0.009z"/>
	</g>
	<rect x="30.678" y="7.961" fill-rule="evenodd" clip-rule="evenodd" fill="#01539D" width="2.644" height="21.125"/>
</g>
</svg>
