<?xml version="1.0" encoding="utf-8"?>
<!-- Generator: Adobe Illustrator 16.0.4, SVG Export Plug-In . SVG Version: 6.00 Build 0)  -->
<!DOCTYPE svg PUBLIC "-//W3C//DTD SVG 1.1//EN" "http://www.w3.org/Graphics/SVG/1.1/DTD/svg11.dtd">
<svg version="1.1" id="Layer_1" xmlns="http://www.w3.org/2000/svg" xmlns:xlink="http://www.w3.org/1999/xlink" x="0px" y="0px"
	 width="121.33px" height="121.897px" viewBox="0 0 121.33 121.897" enable-background="new 0 0 121.33 121.897"
	 xml:space="preserve">
<g opacity="0.9">
	<g>
		<path fill-rule="evenodd" clip-rule="evenodd" fill="#4866B0" d="M104.779,50.257c-6.752-0.53-22.201,5.832-20.134,12.264
			c1.239,3.86,2.053,7.476,3.525,11.271c1.114,2.877,2.403,5.801,2.819,8.813c0.764,5.538-2.654,9.54-8.192,10.486
			c-5.773,0.987-11.313-0.019-16.457-2.497C53.525,84.418,44.934,73.87,37.797,61.739c3.676,1.783,7.27,3.757,11.043,5.298
			c4.838,1.979,9.765,3.775,14.752,5.328c3.762,1.17,7.567,0.357,11.077-1.232c5.52-2.5,7.751-7.918,5.897-14.202
			c-0.822-2.788-1.986-5.477-3.01-8.206c-4.116-11.001,1.865-19.707,13.584-19.729c8.953-0.019,17.905-0.008,26.86,0.001
			c0.954,0,1.909,0.077,3.329,0.141c0,4.858-0.591,9.404-0.591,15.405C120.739,56.225,114.041,52.201,104.779,50.257z"/>
		<path fill-rule="evenodd" clip-rule="evenodd" fill="#EF4335" d="M120.045,0.032c0,7.782,0,15.144,0,22.856
			c-1.102,0.053-2.127,0.144-3.152,0.144c-9.922,0.012-19.843-0.002-29.764,0.01c-5.957,0.008-14.025,6.452-14.957,12.33
			c-0.318,2.002,0.396,4.204,0.811,6.282c1.08,5.417,2.596,10.771,3.289,16.234c0.662,5.222-1.863,7.763-7.174,8.103
			c-9.658,0.621-18.104-2.99-26.07-7.891c-9.467-5.829-17.186-13.475-23.824-22.444C14.538,29.352,8.92,23.752,3.707,17.859
			C2.514,16.511,1.238,15.239,0,13.933c0.136-0.218,0.271-0.437,0.408-0.653c7.258,2.911,14.723,5.403,21.728,8.833
			c10.017,4.902,19.661,10.563,29.542,15.748c3.408,1.786,6.927,3.745,10.623,4.515c5.496,1.144,7.924-1.269,7.611-6.833
			c-0.129-2.264-0.701-4.659-1.699-6.689C61.46,15.084,67.938,6.365,79.747,1.6c2.618-1.056,5.651-1.453,8.505-1.5
			C98.744-0.074,109.242,0.032,120.045,0.032z"/>
	</g>
	<rect x="113.092" y="28.986" fill-rule="evenodd" clip-rule="evenodd" fill="#4866B0" width="8.166" height="92.911"/>
</g>
</svg>
