<?xml version="1.0" encoding="utf-8"?>
<!-- Generator: Adobe Illustrator 16.0.4, SVG Export Plug-In . SVG Version: 6.00 Build 0)  -->
<!DOCTYPE svg PUBLIC "-//W3C//DTD SVG 1.1//EN" "http://www.w3.org/Graphics/SVG/1.1/DTD/svg11.dtd">
<svg version="1.1" id="Layer_1" xmlns="http://www.w3.org/2000/svg" xmlns:xlink="http://www.w3.org/1999/xlink" x="0px" y="0px"
	 width="313.874px" height="93.832px" viewBox="0 0 313.874 93.832" enable-background="new 0 0 313.874 93.832"
	 xml:space="preserve">
<g>
	<path fill-rule="evenodd" clip-rule="evenodd" fill="#FFFFFF" d="M162.087,84.439c2.255,0.317,2.255,0.317,2.255,2.725
		c0,1.43,0.057,2.864-0.041,4.287c-0.027,0.399-0.516,1.092-0.799,1.096c-5.101,0.066-10.203,0.048-15.455,0.048
		c-0.034-0.796-0.087-1.441-0.089-2.088c-0.007-5.827-0.002-11.657-0.002-17.487c0-0.385,0.009-0.77-0.004-1.156
		c-0.062-1.872-1.397-3.598-2.759-3.58c-1.31,0.013-2.565,1.67-2.574,3.523c-0.027,4.061-0.009,8.124-0.009,12.249
		c0.358,0.097,0.604,0.212,0.856,0.229c2.517,0.14,2.518,0.135,2.518,2.599c0,1.75,0,3.5,0,5.384c-6.604,0-13.052,0-19.68,0
		c0-2.266-0.055-4.456,0.055-6.638c0.018-0.378,0.684-0.915,1.145-1.043c1.56-0.431,2.244-1.277,2.191-2.963
		c-0.104-3.405-0.027-6.817-0.031-10.228c-0.001-3.458-1.037-4.518-4.481-4.61c-0.317-0.011-0.631-0.05-1.04-0.081
		c0-2.483,0-4.877,0-7.487c1.203,0,2.394-0.003,3.582,0c3.74,0.019,7.48,0.119,11.217,0.021c1.677-0.045,3.019,0.222,3.914,1.755
		c0.155,0.266,0.457,0.445,0.68,0.654c6.947-4.842,13.333-4.087,17.155,0.53c3.372-1.082,6.551-2.194,9.793-3.089
		c1.183-0.329,2.522-0.277,3.768-0.16c3.889,0.364,5.569,2.29,5.588,6.313c0.025,5.224,0.007,10.448,0.008,15.675
		c0,0.493-0.162,1.104,0.066,1.459c0.494,0.774,1.092,1.817,1.837,2.005c0.724,0.185,1.939-0.347,2.468-0.964
		c0.576-0.672,0.836-1.806,0.838-2.741c0.049-15.947,0.037-31.895,0.03-47.844c-0.001-1.807-1.131-2.981-2.907-3.123
		c-3.818-0.298-6.046,2.316-4.879,5.951c0.7,2.18,1.82,4.225,2.652,6.368c0.632,1.627,1.358,3.278,1.594,4.981
		c0.432,3.127-1.5,5.389-4.629,5.925c-3.264,0.559-6.391-0.009-9.3-1.41c-7.241-3.492-12.097-9.452-16.128-16.306
		c2.076,1.006,4.108,2.123,6.241,2.993c2.732,1.118,5.515,2.134,8.335,3.011c2.123,0.662,4.274,0.202,6.259-0.696
		c3.118-1.414,4.378-4.476,3.332-8.025c-0.464-1.576-1.122-3.094-1.702-4.637c-2.326-6.218,1.055-11.138,7.679-11.15
		c5.059-0.009,10.118-0.004,15.176,0.002c0.54,0,1.078,0.044,1.882,0.079c0,7.321,0,14.552,0,21.783c0,7.186,0,14.368,0,21.757
		c0.461-0.172,0.711-0.227,0.928-0.348c7.783-4.447,15.795-1.967,19.109,6.323c2.766,6.926,2.443,13.987-1.482,20.449
		c-4.184,6.898-12.504,7.886-19.309,4.112c-0.947-0.524-1.824-1.172-2.973-1.919c-0.381,3.72-2.981,3.356-5.509,3.338
		c-6.874-0.053-13.747-0.017-20.622-0.019c-2.094,0-2.095-0.001-2.095-2.186c0-5.938,0.032-11.877-0.032-17.815
		c-0.012-0.997-0.258-2.099-0.738-2.957c-0.811-1.442-2.436-1.396-3.324,0.015c-0.365,0.578-0.662,1.314-0.674,1.982
		c-0.055,4.178-0.026,8.359-0.017,12.538C161.954,84.056,162.045,84.261,162.087,84.439z M206.186,75.514
		c-0.055-2.681-0.326-5.292-1.879-7.563c-1.436-2.093-3.654-2.006-4.594,0.321c-1.876,4.653-1.902,9.435-0.047,14.101
		c1.02,2.563,3.16,2.65,4.709,0.349C205.844,80.54,206.105,78.035,206.186,75.514z"/>
	<path fill-rule="evenodd" clip-rule="evenodd" fill="#FFFFFF" d="M33.625,43.349c0,4.193,0,8.138,0,12.083
		c0,4.076,0,4.076-4.151,4.076c-0.273,0-0.551-0.025-0.823,0.006c-1.631,0.178-2.744-0.141-3.602-1.898
		c-1.26-2.577-3.657-3.867-6.578-3.984c-2.241-0.089-3.428,0.588-3.789,2.117c-0.369,1.567,0.317,2.711,2.45,3.531
		c2.761,1.063,5.609,1.896,8.378,2.94c6.226,2.35,10.274,6.459,10.466,13.49c0.259,9.588-4.535,16.24-14.434,17.897
		c-3.31,0.555-6.424-0.022-9.575-0.851c-0.746-0.195-1.751-0.298-2.363,0.045C6.573,94.504,3.375,93.359,0,93.832
		c0-2.874,0-5.484,0-8.096c0-2.58,0-5.161,0-8.016c2.408,0,4.746-0.051,7.075,0.048c0.415,0.02,0.83,0.639,1.193,1.03
		c2.11,2.286,4.556,4.006,7.738,4.284c0.994,0.085,2.191,0.002,3-0.489c0.825-0.501,1.699-1.562,1.781-2.451
		c0.072-0.767-0.751-1.996-1.505-2.389c-2.28-1.18-4.719-2.047-7.093-3.051C6.973,72.496,2.758,69.302,1.213,63.5
		c-0.923-3.465-0.998-6.978-0.092-10.422c1.399-5.338,5.111-8.463,10.42-9.272c3.091-0.469,6.322-0.116,9.481,0.025
		c0.86,0.038,1.698,0.65,2.539,1.013c0.959,0.414,1.879,0.875,2.255-0.718c0.074-0.319,0.647-0.73,1.002-0.741
		C28.952,43.314,31.092,43.349,33.625,43.349z"/>
	<path fill-rule="evenodd" clip-rule="evenodd" fill="#FFFFFF" d="M276.775,70.675c0.227-2.893-1.395-4.953-4.25-4.752
		c-2.916,0.206-5.787,1.048-8.652,1.73c-1.309,0.311-2.551,0.909-4.135,1.491c0-2.9-0.051-5.565,0.061-8.223
		c0.016-0.367,0.801-0.814,1.311-1.031c4.838-2.053,9.926-2.483,15.041-1.741c3.33,0.485,6.676,1.297,9.828,2.455
		c2.979,1.093,4.406,3.593,4.342,6.895c-0.076,4.123,0.027,8.249-0.037,12.371c-0.025,1.626,0.518,2.841,1.791,3.849
		c0.436,0.348,0.809,1.029,0.846,1.579c0.107,1.753,0.016,3.517,0.049,5.274c0.018,0.859-0.189,1.336-1.18,1.328
		c-4.012-0.03-8.029,0.072-12.035-0.084c-0.777-0.032-1.514-0.991-2.477-1.673c-2.6,1.772-5.863,2.204-9.244,2.274
		c-8.754,0.187-11.074-5.719-10.129-12.091c0.988-6.632,7.688-11.331,14.564-10.408C273.877,70.106,275.271,70.405,276.775,70.675z
		 M271.369,80.383c-0.041,1.542,0.107,1.905,0.504,2.655c1.125,2.14,3.391,2.531,5.072,0.958c1.877-1.758,1.732-5.493-0.277-7.091
		c-1.24-0.988-3.002-1.009-4.012,0.224C271.896,78.052,271.328,78.924,271.369,80.383z"/>
	<path fill-rule="evenodd" clip-rule="evenodd" fill="#FFFFFF" d="M109.658,90.552c-3.919,2.507-8.355,2.866-12.875,1.979
		c-4.222-0.827-6.379-3.918-6.723-8.22c-0.88-10.985,9.463-15.358,16.602-13.63c0.733,0.177,1.479,0.31,2.216,0.46
		c0.5-2.088-0.286-3.938-2.31-4.279c-2.095-0.354-4.367-0.301-6.454,0.116c-2.657,0.532-5.205,1.605-8.045,2.526
		c0-2.732-0.054-5.343,0.054-7.949c0.014-0.393,0.684-0.904,1.157-1.111c5.09-2.22,10.438-2.545,15.829-1.731
		c3.007,0.453,6.029,1.168,8.875,2.223c3.17,1.172,4.728,3.71,4.655,7.218c-0.083,4.123,0.01,8.245-0.033,12.368
		c-0.016,1.491,0.414,2.674,1.663,3.549c0.337,0.236,0.783,0.63,0.794,0.966c0.074,2.196,0.072,4.396,0.004,6.592
		c-0.007,0.221-0.611,0.61-0.942,0.614c-4.123,0.042-8.247,0.104-12.366-0.051C111.06,92.167,110.396,91.156,109.658,90.552z
		 M110.545,81.075c0.009-2.49-1.512-4.363-3.532-4.346c-1.921,0.015-3.46,1.886-3.49,4.241c-0.031,2.458,1.497,4.419,3.468,4.454
		C108.974,85.457,110.536,83.547,110.545,81.075z"/>
	<path fill-rule="evenodd" clip-rule="evenodd" fill="#FFFFFF" d="M256.977,75.055c-0.195,10.089-8.225,18.157-17.904,17.976
		c-10.223-0.192-17.77-8.383-17.572-19.079c0.172-9.305,8.562-17.366,17.857-17.157C249.258,57.017,257.162,65.209,256.977,75.055z
		 M243.076,74.912c0-2.987-0.582-5.964-1.688-8.456c-1.129-2.53-3.455-2.506-4.666-0.003c-2.607,5.387-2.59,10.921,0.064,16.295
		c1.15,2.329,3.426,2.413,4.486,0.077C242.445,80.246,243.076,78.341,243.076,74.912z"/>
	<path fill-rule="evenodd" clip-rule="evenodd" fill="#EF4335" d="M198.297,0.018c0,4.399,0,8.557,0,12.917
		c-0.623,0.03-1.203,0.082-1.783,0.082c-5.605,0.007-11.212,0-16.818,0.007c-3.365,0.003-7.926,3.645-8.451,6.965
		c-0.18,1.132,0.225,2.379,0.459,3.551c0.608,3.061,1.465,6.086,1.856,9.173c0.374,2.95-1.052,4.387-4.054,4.58
		c-5.457,0.35-10.23-1.69-14.73-4.461c-5.349-3.291-9.711-7.614-13.462-12.68c-2.636-3.562-5.811-6.728-8.758-10.059
		c-0.672-0.76-1.394-1.479-2.093-2.219c0.077-0.121,0.152-0.246,0.231-0.368c4.101,1.646,8.319,3.053,12.277,4.992
		c5.659,2.771,11.11,5.968,16.693,8.898c1.927,1.011,3.913,2.117,6.001,2.553c3.106,0.645,4.479-0.718,4.303-3.862
		c-0.072-1.278-0.396-2.633-0.959-3.779c-3.816-7.78-0.158-12.708,6.516-15.4c1.479-0.597,3.195-0.822,4.806-0.847
		C186.259-0.042,192.191,0.018,198.297,0.018z"/>
	<path fill-rule="evenodd" clip-rule="evenodd" fill="#FFFFFF" d="M70.849,78.98c0.063,1.215,0.042,2.199,0.185,3.157
		c0.223,1.489,0.846,2.773,2.486,3.13c1.598,0.35,3.333-0.389,3.758-2.193c0.569-2.411,2.061-2.315,3.859-2.254
		c2.141,0.075,4.289,0.081,6.429-0.004c1.419-0.057,1.683,0.521,1.44,1.785c-1.038,5.417-4.377,8.623-9.618,9.832
		c-4.652,1.074-9.318,0.897-13.737-1.028c-4.369-1.907-6.85-5.451-8.09-10.004c-1.993-7.328,0.55-16.206,6.055-20.341
		c7.076-5.312,20.231-5.267,25.104,7.309c1.057,2.732,1.845,5.512,1.334,8.508c-0.244,1.424-0.738,2.184-2.437,2.148
		C82.13,78.907,76.638,78.98,70.849,78.98z M74.071,71.344c3.765,0,4.253-0.688,2.851-4.019c-0.705-1.674-1.977-2.401-3.479-1.986
		c-1.599,0.44-3.112,3.2-2.63,5.166c0.39,1.589,1.834,0.56,2.767,0.833C73.732,71.382,73.906,71.344,74.071,71.344z"/>
	<path fill-rule="evenodd" clip-rule="evenodd" fill="#FFFFFF" d="M38.763,66.684c-1.136,0-2.059-0.057-2.973,0.014
		c-1.181,0.093-1.543-0.423-1.496-1.545c0.069-1.59,0.068-3.188,0.002-4.78c-0.046-1.142,0.363-1.61,1.525-1.51
		c0.862,0.076,1.733,0.016,2.803,0.016c0-3.09,0-6.025,0-9.141c0.825-0.041,1.459-0.096,2.092-0.098
		c3.133-0.009,6.265,0.042,9.396-0.028c1.18-0.028,1.525,0.399,1.492,1.525c-0.067,2.195,0.007,4.396-0.031,6.593
		c-0.016,0.909,0.299,1.299,1.24,1.263c1.363-0.051,2.73-0.014,4.39-0.014c0,2.674,0.036,5.224-0.055,7.771
		c-0.01,0.252-0.776,0.653-1.21,0.682c-1.361,0.088-2.732,0.033-4.226,0.033c0,5.644,0,11.16,0,16.916
		c1.392,0,2.747,0.055,4.095-0.017c1.051-0.054,1.484,0.27,1.45,1.385c-0.069,2.293-0.021,4.59-0.021,7.098
		c-1.755,0-3.328,0-4.904,0c-3.299,0-6.595,0.004-9.894,0c-2.801-0.005-3.658-0.82-3.667-3.612
		c-0.021-6.761-0.008-13.521-0.008-20.279C38.763,68.3,38.763,67.643,38.763,66.684z"/>
	<path fill-rule="evenodd" clip-rule="evenodd" fill="#FFFFFF" d="M291.068,65.716c0-2.717,0-5.173,0-7.785c1.363,0,2.654,0,4.254,0
		c0-2.375-0.01-4.6,0.002-6.825c0.018-2.769-0.318-2.422,2.482-2.435c3.395-0.017,6.787-0.004,10.363-0.004c0,3.156,0,6.147,0,9.355
		c1.959,0,3.74,0,5.68,0c0,2.626,0.047,5.033-0.051,7.436c-0.016,0.336-0.705,0.887-1.117,0.922
		c-1.41,0.115-2.838,0.044-4.371,0.044c0,5.697,0,11.274,0,17.1c1.4,0,2.811,0.042,4.219-0.011c0.984-0.038,1.371,0.303,1.342,1.323
		c-0.061,1.921-0.068,3.85,0,5.77c0.037,1.063-0.439,1.298-1.383,1.293c-4.615-0.028-9.229,0.016-13.85-0.028
		c-2.369-0.022-3.145-0.843-3.152-3.226c-0.021-7.033-0.045-14.068,0.021-21.101c0.014-1.426-0.334-2.042-1.824-1.846
		C292.881,65.803,292.061,65.716,291.068,65.716z"/>
</g>
</svg>
